<svg width="260" height="260" viewBox="0 0 260 260" fill="none" xmlns="http://www.w3.org/2000/svg">
<rect x="2" y="2" width="256" height="256" rx="8" fill="#05122E"/>
<path d="M42.46 214L66.38 39.2H91.22L115.37 214H92.14L88.69 182.49H68.91L65.46 214H42.46ZM70.29 161.33H87.31L79.26 72.55H78.57L70.29 161.33ZM119.122 214V187.32H140.282V214H119.122ZM179.398 215.61C159.848 215.61 147.888 205.49 147.888 178.12V160.64H156.858V180.65C156.858 185.94 157.088 206.87 179.628 206.87C201.248 206.87 201.478 187.09 201.478 180.65V162.71C201.478 154.66 201.018 141.09 188.368 133.5L169.048 121.31C163.528 117.86 159.618 114.64 156.858 110.73C149.728 101.99 149.498 92.33 149.498 79.68V72.09C149.498 44.72 162.608 37.36 178.708 37.36C194.578 37.36 209.528 44.26 209.528 73.93V91.64H200.328V73.24C200.328 67.72 200.328 45.87 178.708 45.87C158.468 45.87 158.468 64.96 158.468 73.47V84.05C158.468 90.95 158.468 98.31 164.448 105.44C167.208 109.35 171.808 112.8 177.558 116.71L197.798 129.36C210.448 137.41 210.678 151.21 210.678 163.17V178.12C210.678 192.38 208.148 215.61 179.398 215.61Z" fill="white"/>
</svg>
