<svg xmlns="http://www.w3.org/2000/svg" viewBox="0 0 92 17" height="30" width="162.3529411764706" fill="none"><path fill="currentColor" d="m6.908 9.146 1.802 1.166c-.836 1.685-2.203 2.527-4.099 2.527-1.32 0-2.42-.424-3.304-1.272C.436 10.707 0 9.588 0 8.21c0-1.366.448-2.48 1.343-3.339.895-.86 1.984-1.29 3.268-1.29.978 0 1.814.212 2.509.636a3.52 3.52 0 0 1 1.501 1.75l-1.82 1.2c-.459-1-1.195-1.501-2.208-1.501-.67 0-1.23.236-1.678.707-.436.459-.654 1.071-.654 1.837 0 .777.218 1.396.654 1.855.436.46.995.69 1.678.69.566 0 1.025-.13 1.378-.39.366-.27.678-.677.937-1.219ZM10.01 16.125l.353-2.067c.259.141.524.212.795.212.46 0 .789-.277.99-.83l.282-.778L8.826 3.83h2.526l2.262 5.688 2.155-5.688h2.526l-4.17 10.352c-.305.766-.694 1.314-1.165 1.644-.46.33-1.037.494-1.732.494a3.53 3.53 0 0 1-1.219-.194ZM18.965 12.591V.225h2.226v4.681c.695-.883 1.655-1.325 2.88-1.325 1.2 0 2.196.418 2.985 1.255.801.836 1.202 1.96 1.202 3.374 0 1.413-.407 2.538-1.22 3.374-.8.837-1.801 1.255-3.003 1.255-1.225 0-2.173-.442-2.844-1.325v1.077h-2.226Zm2.773-2.544c.472.471 1.066.707 1.785.707.718 0 1.307-.236 1.767-.707.47-.482.706-1.095.706-1.837s-.235-1.349-.706-1.82c-.46-.483-1.049-.724-1.767-.724-.719 0-1.313.241-1.785.724-.459.471-.689 1.078-.689 1.82s.23 1.354.69 1.837ZM37.851 8.74h-6.749c.071.671.324 1.207.76 1.608.436.388.984.583 1.643.583 1.084 0 1.89-.536 2.42-1.608l1.661.954c-.824 1.708-2.196 2.562-4.116 2.562-1.249 0-2.315-.43-3.198-1.29-.871-.871-1.307-1.984-1.307-3.339 0-1.354.441-2.462 1.325-3.321.895-.872 1.99-1.308 3.286-1.308 1.248 0 2.273.413 3.074 1.237.8.824 1.201 1.873 1.201 3.145v.777Zm-4.346-3.463c-.577 0-1.078.171-1.502.513a2.758 2.758 0 0 0-.9 1.325h4.699c-.106-.577-.36-1.025-.76-1.343-.4-.33-.913-.495-1.537-.495ZM44.515 3.687l-.353 2.103a1.987 1.987 0 0 0-.725-.124c-.66 0-1.177.241-1.554.724s-.566 1.107-.566 1.873v4.328h-2.226V3.83h2.226v1.395c.542-1.095 1.355-1.643 2.438-1.643.271 0 .524.036.76.106ZM47.081 9.235a2.044 2.044 0 0 1-.618-1.502c0-.589.206-1.09.618-1.502a2.044 2.044 0 0 1 1.502-.618c.589 0 1.09.206 1.502.618.412.413.618.913.618 1.502s-.206 1.09-.618 1.502a2.044 2.044 0 0 1-1.502.618c-.589 0-1.09-.206-1.502-.618ZM53.672 12.591V.225h8.745v2.084h-6.413v3.198h5.883v2.085h-5.883v5h-2.332ZM63.49 9.27V3.829h2.226v4.929c0 1.33.594 1.996 1.784 1.996.624 0 1.119-.218 1.484-.654.365-.447.548-1.03.548-1.749V3.83h2.226v8.762h-2.226v-1.378c-.578 1.084-1.508 1.626-2.792 1.626-.954 0-1.737-.312-2.35-.937-.6-.624-.9-1.501-.9-2.632ZM81.631 6.62v5.971h-2.226V7.54c0-1.249-.595-1.873-1.784-1.873-.601 0-1.09.23-1.467.689-.377.448-.565 1.042-.565 1.784v4.452h-2.226V3.83h2.226v1.413c.718-1.107 1.708-1.66 2.968-1.66.942 0 1.69.276 2.244.83.553.553.83 1.29.83 2.208ZM92 .225V12.59h-2.226v-1.236c-.26.447-.624.806-1.095 1.077-.472.271-1.025.407-1.661.407-1.237 0-2.267-.418-3.092-1.255-.812-.836-1.219-1.96-1.219-3.374 0-1.39.43-2.509 1.29-3.357.871-.848 1.879-1.272 3.02-1.272 1.308 0 2.227.442 2.757 1.325V.225H92Zm-6.325 9.822c.471.471 1.06.707 1.767.707.707 0 1.296-.236 1.767-.707.47-.482.706-1.095.706-1.837s-.235-1.349-.706-1.82c-.472-.483-1.06-.724-1.767-.724-.707 0-1.296.241-1.767.724-.47.471-.706 1.078-.706 1.82s.235 1.354.706 1.837Z"></path></svg>
