<svg width="1085" height="71" viewBox="0 0 1085 71" fill="none" xmlns="http://www.w3.org/2000/svg">
<path d="M22.0156 27.253L27.972 35.4217L23.76 39.2508L17.4207 30.4864L16.3996 27.4231L15.3785 30.4864L9.42208 38.6552L4.48678 35.8046L10.7835 27.1679L13.549 25.2533L10.1028 25.0831L0.615129 21.9773L1.76386 16.4038L11.8897 19.6798L14.6977 21.8922L13.7617 18.4035V8.44778L19.4203 7.85215V18.5736L18.3141 21.9773L21.1221 19.85L30.6949 16.7867L32.9924 21.9773L22.6963 25.2959L19.3352 25.4235L22.0156 27.253ZM77.3582 27.253L83.3146 35.4217L79.1025 39.2508L72.7632 30.4864L71.7421 27.4231L70.721 30.4864L64.7647 38.6552L59.8294 35.8046L66.1261 27.1679L68.8916 25.2533L65.4454 25.0831L55.9577 21.9773L57.1064 16.4038L67.2323 19.6798L70.0403 21.8922L69.1043 18.4035V8.44778L74.7629 7.85215V18.5736L73.6567 21.9773L76.4647 19.85L86.0375 16.7867L88.3349 21.9773L78.0389 25.2959L74.6778 25.4235L77.3582 27.253ZM1018.18 27.253L1024.14 35.4217L1019.93 39.2508L1013.59 30.4864L1012.57 27.4231L1011.54 30.4864L1005.59 38.6552L1000.65 35.8046L1006.95 27.1679L1009.72 25.2533L1006.27 25.0831L996.782 21.9773L997.93 16.4038L1008.06 19.6798L1010.86 21.8922L1009.93 18.4035V8.44778L1015.59 7.85215V18.5736L1014.48 21.9773L1017.29 19.85L1026.86 16.7867L1029.16 21.9773L1018.86 25.2959L1015.5 25.4235L1018.18 27.253ZM1073.52 27.253L1079.48 35.4217L1075.27 39.2508L1068.93 30.4864L1067.91 27.4231L1066.89 30.4864L1060.93 38.6552L1056 35.8046L1062.29 27.1679L1065.06 25.2533L1061.61 25.0831L1052.12 21.9773L1053.27 16.4038L1063.4 19.6798L1066.21 21.8922L1065.27 18.4035V8.44778L1070.93 7.85215V18.5736L1069.82 21.9773L1072.63 19.85L1082.2 16.7867L1084.5 21.9773L1074.21 25.2959L1070.84 25.4235L1073.52 27.253Z" fill="black"/>
<path d="M129.084 29.5504C126.475 29.5504 124.107 30.0468 121.979 31.0395C119.852 32.0039 118.022 33.3228 116.491 34.9963C114.988 36.6697 113.825 38.641 113.002 40.9101C112.18 43.1792 111.768 45.6043 111.768 48.1854C111.768 50.7098 112.123 52.9222 112.832 54.8225C113.569 56.7229 114.52 58.3113 115.682 59.5877C116.874 60.864 118.207 61.8284 119.682 62.4808C121.157 63.1048 122.646 63.4168 124.149 63.4168C125.482 63.4168 126.744 63.1899 127.936 62.736C129.127 62.2822 130.233 61.7149 131.254 61.0342C132.275 60.3535 133.197 59.616 134.02 58.8218C134.842 57.9993 135.537 57.2335 136.104 56.5244V29.5504H129.084ZM136.104 69.5433V62.6509L132.445 67.4586C131.424 68.1393 130.063 68.7775 128.361 69.3732C126.659 69.9688 124.702 70.2666 122.49 70.2666C119.937 70.2666 117.526 69.8128 115.257 68.9052C112.988 67.9691 111.002 66.5651 109.301 64.6931C107.599 62.7928 106.252 60.396 105.259 57.5029C104.266 54.5814 103.77 51.1353 103.77 47.1643C103.77 43.7607 104.422 40.5839 105.727 37.6341C107.06 34.6559 108.861 32.0606 111.13 29.8482C113.399 27.6359 116.065 25.9057 119.129 24.6577C122.22 23.3813 125.525 22.7431 129.042 22.7431H136.104V0.619382L143.763 1.4703V61.8851L144.614 69.5433H136.104ZM154.049 69.5433L174.131 14.234L175.62 5.72486L183.193 4.87395L206.508 69.5433H197.999L191.702 50.3978H168.94L161.878 69.5433H154.049ZM180.13 9.97943L178.215 23.594L171.025 44.0159H189.618L182.044 23.594L180.13 9.97943ZM258.66 61.1618C257.497 62.4382 256.192 63.6437 254.746 64.7782C253.299 65.8844 251.711 66.8488 249.98 67.6713C248.25 68.4655 246.364 69.0895 244.322 69.5433C242.28 70.0255 240.082 70.2666 237.727 70.2666C233.643 70.2666 230.069 69.3873 227.006 67.6288C223.971 65.8419 221.447 63.4309 219.433 60.396C217.447 57.3611 215.958 53.8156 214.965 49.7596C213.973 45.7036 213.476 41.3781 213.476 36.7832C213.476 33.9184 213.661 31.153 214.029 28.4868C214.427 25.7922 215.036 23.2679 215.859 20.9137C216.681 18.5595 217.745 16.418 219.05 14.4893C220.383 12.5322 221.985 10.8587 223.857 9.46888C225.729 8.05069 227.885 6.95869 230.324 6.19286C232.792 5.39868 235.586 5.00159 238.706 5.00159C241.968 5.00159 245.045 5.52632 247.938 6.57578C250.86 7.59687 253.342 9.08597 255.384 11.0431L251.555 15.5955C250.193 14.6878 248.491 13.8936 246.449 13.2129C244.407 12.5322 242.053 12.1918 239.387 12.1918C237.089 12.1918 235.075 12.4896 233.345 13.0853C231.615 13.6809 230.112 14.5176 228.835 15.5955C227.587 16.6733 226.552 17.9638 225.729 19.4671C224.907 20.942 224.24 22.5871 223.73 24.4024C223.248 26.2177 222.907 28.1606 222.709 30.2312C222.51 32.3017 222.411 34.4432 222.411 36.6555C222.411 38.6126 222.51 40.6265 222.709 42.697C222.936 44.7392 223.29 46.7389 223.772 48.696C224.255 50.6531 224.907 52.4967 225.729 54.2269C226.552 55.9571 227.559 57.4746 228.75 58.7793C229.97 60.084 231.402 61.1193 233.047 61.8851C234.721 62.6509 236.65 63.0339 238.834 63.0339C240.11 63.0339 241.372 62.892 242.62 62.6084C243.868 62.3248 245.045 61.956 246.151 61.5022C247.258 61.0484 248.236 60.552 249.087 60.0131C249.966 59.4458 250.661 58.8927 251.172 58.3538V43.5054L237.812 42.6545V37.1236H258.66V61.1618ZM271.882 5.72486H310.173V12.5322H294.942V62.736H311.024L310.173 69.5433H271.882V62.736H287.028V12.5322H271.031L271.882 5.72486ZM375.42 69.5433L395.501 14.234L396.99 5.72486L404.563 4.87395L427.878 69.5433H419.369L413.073 50.3978H390.311L383.248 69.5433H375.42ZM401.5 9.97943L399.586 23.594L392.395 44.0159H410.988L403.415 23.594L401.5 9.97943ZM472.244 32.1883C471.138 31.1955 469.606 30.3872 467.649 29.7632C465.692 29.1392 463.21 28.8272 460.204 28.8272C457.821 28.8272 455.68 29.281 453.779 30.1886C451.907 31.0679 450.305 32.2733 448.972 33.805C447.667 35.3366 446.66 37.1236 445.951 39.1657C445.27 41.1796 444.93 43.3069 444.93 45.5476C444.93 47.8734 445.256 50.1 445.908 52.2273C446.589 54.3262 447.582 56.184 448.887 57.8007C450.22 59.4175 451.865 60.708 453.822 61.6724C455.779 62.6084 458.062 63.0764 460.672 63.0764C462.147 63.0764 463.565 62.9062 464.926 62.5658C466.288 62.2255 467.522 61.8284 468.628 61.3746C469.734 60.8924 470.67 60.4244 471.436 59.9706C472.23 59.4884 472.797 59.1055 473.138 58.8218L476.201 64.8208C475.776 65.1895 475.137 65.6859 474.286 66.3099C473.436 66.9055 472.344 67.5011 471.01 68.0968C469.706 68.6924 468.146 69.203 466.33 69.6284C464.543 70.0539 462.459 70.2666 460.076 70.2666C456.531 70.2666 453.311 69.5717 450.418 68.1819C447.554 66.7637 445.1 64.8917 443.058 62.5658C441.016 60.2117 439.427 57.5171 438.293 54.4822C437.187 51.4473 436.634 48.2847 436.634 44.9945C436.634 42.0447 437.172 39.1941 438.25 36.4428C439.356 33.6632 440.931 31.2097 442.973 29.0824C445.015 26.9551 447.497 25.2533 450.418 23.9769C453.34 22.6722 456.63 22.0198 460.289 22.0198C463.749 22.0198 466.855 22.4311 469.606 23.2537C472.386 24.0479 474.669 25.4235 476.456 27.3806L472.244 32.1883ZM527.587 32.1883C526.481 31.1955 524.949 30.3872 522.992 29.7632C521.035 29.1392 518.553 28.8272 515.546 28.8272C513.164 28.8272 511.022 29.281 509.122 30.1886C507.25 31.0679 505.647 32.2733 504.314 33.805C503.01 35.3366 502.003 37.1236 501.294 39.1657C500.613 41.1796 500.273 43.3069 500.273 45.5476C500.273 47.8734 500.599 50.1 501.251 52.2273C501.932 54.3262 502.925 56.184 504.229 57.8007C505.562 59.4175 507.207 60.708 509.165 61.6724C511.122 62.6084 513.405 63.0764 516.014 63.0764C517.489 63.0764 518.908 62.9062 520.269 62.5658C521.63 62.2255 522.864 61.8284 523.97 61.3746C525.077 60.8924 526.013 60.4244 526.778 59.9706C527.573 59.4884 528.14 59.1055 528.48 58.8218L531.544 64.8208C531.118 65.1895 530.48 65.6859 529.629 66.3099C528.778 66.9055 527.686 67.5011 526.353 68.0968C525.048 68.6924 523.488 69.203 521.673 69.6284C519.886 70.0539 517.801 70.2666 515.419 70.2666C511.873 70.2666 508.654 69.5717 505.761 68.1819C502.896 66.7637 500.443 64.8917 498.401 62.5658C496.358 60.2117 494.77 57.5171 493.635 54.4822C492.529 51.4473 491.976 48.2847 491.976 44.9945C491.976 42.0447 492.515 39.1941 493.593 36.4428C494.699 33.6632 496.273 31.2097 498.315 29.0824C500.358 26.9551 502.839 25.2533 505.761 23.9769C508.682 22.6722 511.973 22.0198 515.632 22.0198C519.092 22.0198 522.198 22.4311 524.949 23.2537C527.729 24.0479 530.012 25.4235 531.799 27.3806L527.587 32.1883ZM584.078 64.0549C583.199 64.9626 582.234 65.7993 581.185 66.5651C580.136 67.331 578.973 67.9975 577.696 68.5648C576.42 69.1037 575.002 69.515 573.442 69.7986C571.91 70.1106 570.194 70.2666 568.294 70.2666C564.521 70.2666 561.259 69.6001 558.508 68.267C555.757 66.9339 553.488 65.147 551.701 62.9062C549.914 60.6655 548.595 58.0986 547.744 55.2055C546.893 52.3123 546.468 49.2916 546.468 46.1432C546.468 44.1294 546.666 42.1439 547.063 40.1868C547.489 38.2014 548.085 36.3152 548.85 34.5283C549.645 32.7413 550.623 31.0821 551.786 29.5504C552.977 28.0188 554.339 26.6999 555.87 25.5937C557.43 24.4875 559.146 23.6224 561.018 22.9984C562.919 22.346 564.989 22.0198 567.23 22.0198C570.293 22.0198 573.059 22.5162 575.526 23.5089C577.994 24.5017 580.093 25.8915 581.823 27.6784C583.553 29.4653 584.887 31.621 585.823 34.1454C586.759 36.6414 587.227 39.3927 587.227 42.3992C587.227 43.2785 587.198 44.2429 587.141 45.2923C587.085 46.3418 587 47.3345 586.886 48.2705H554.551C554.551 50.4545 554.892 52.4825 555.573 54.3545C556.253 56.1982 557.175 57.8007 558.338 59.1622C559.529 60.4953 560.919 61.5448 562.507 62.3106C564.124 63.0764 565.869 63.4593 567.741 63.4593C569.556 63.4593 571.102 63.3317 572.378 63.0764C573.683 62.7928 574.775 62.4524 575.654 62.0553C576.562 61.6582 577.313 61.2328 577.909 60.7789C578.505 60.3251 579.015 59.8997 579.441 59.5026L584.078 64.0549ZM579.738 41.8887V40.0167C579.738 38.3999 579.412 36.9108 578.76 35.5494C578.136 34.1879 577.271 33.0108 576.165 32.0181C575.087 30.997 573.825 30.2028 572.378 29.6355C570.96 29.0682 569.457 28.7846 567.868 28.7846C565.968 28.7846 564.294 29.0966 562.848 29.7206C561.43 30.3162 560.21 31.0963 559.189 32.0606C558.168 32.9966 557.345 34.0319 556.721 35.1665C556.097 36.301 555.643 37.3788 555.36 38.3999L552.85 43.2501L560.721 41.8887H579.738ZM617.127 9.12851L618.829 6.57578L612.872 8.2776H604.321L603.47 1.4703H624.785V53.5462C624.785 55.4182 624.927 56.9924 625.21 58.2687C625.494 59.5167 625.877 60.5378 626.359 61.332C626.841 62.0978 627.423 62.6509 628.104 62.9913C628.784 63.3033 629.522 63.4593 630.316 63.4593C631.451 63.4593 632.486 63.3742 633.422 63.204C634.386 63.0339 635.237 62.8211 635.975 62.5658C636.74 62.3106 637.393 62.0411 637.932 61.7575C638.499 61.4738 638.953 61.2328 639.293 61.0342L642.229 66.1822C642.002 66.3808 641.534 66.707 640.825 67.1608C640.116 67.6146 639.208 68.0684 638.102 68.5222C637.024 68.9761 635.748 69.3732 634.273 69.7135C632.826 70.0822 631.224 70.2666 629.465 70.2666C626.912 70.2666 624.828 69.7986 623.211 68.8626C621.594 67.9266 620.332 66.6502 619.424 65.0335C618.545 63.4168 617.935 61.5448 617.595 59.4175C617.283 57.2618 617.127 54.9644 617.127 52.5251V9.12851ZM694.763 64.0549C693.884 64.9626 692.92 65.7993 691.87 66.5651C690.821 67.331 689.658 67.9975 688.381 68.5648C687.105 69.1037 685.687 69.515 684.127 69.7986C682.595 70.1106 680.879 70.2666 678.979 70.2666C675.207 70.2666 671.945 69.6001 669.193 68.267C666.442 66.9339 664.173 65.147 662.386 62.9062C660.599 60.6655 659.28 58.0986 658.429 55.2055C657.578 52.3123 657.153 49.2916 657.153 46.1432C657.153 44.1294 657.352 42.1439 657.749 40.1868C658.174 38.2014 658.77 36.3152 659.536 34.5283C660.33 32.7413 661.308 31.0821 662.471 29.5504C663.662 28.0188 665.024 26.6999 666.556 25.5937C668.116 24.4875 669.832 23.6224 671.704 22.9984C673.604 22.346 675.675 22.0198 677.915 22.0198C680.979 22.0198 683.744 22.5162 686.212 23.5089C688.679 24.5017 690.778 25.8915 692.508 27.6784C694.239 29.4653 695.572 31.621 696.508 34.1454C697.444 36.6414 697.912 39.3927 697.912 42.3992C697.912 43.2785 697.883 44.2429 697.827 45.2923C697.77 46.3418 697.685 47.3345 697.571 48.2705H665.237C665.237 50.4545 665.577 52.4825 666.258 54.3545C666.938 56.1982 667.86 57.8007 669.023 59.1622C670.214 60.4953 671.604 61.5448 673.193 62.3106C674.809 63.0764 676.554 63.4593 678.426 63.4593C680.241 63.4593 681.787 63.3317 683.063 63.0764C684.368 62.7928 685.46 62.4524 686.339 62.0553C687.247 61.6582 687.999 61.2328 688.594 60.7789C689.19 60.3251 689.7 59.8997 690.126 59.5026L694.763 64.0549ZM690.424 41.8887V40.0167C690.424 38.3999 690.097 36.9108 689.445 35.5494C688.821 34.1879 687.956 33.0108 686.85 32.0181C685.772 30.997 684.51 30.2028 683.063 29.6355C681.645 29.0682 680.142 28.7846 678.553 28.7846C676.653 28.7846 674.98 29.0966 673.533 29.7206C672.115 30.3162 670.895 31.0963 669.874 32.0606C668.853 32.9966 668.03 34.0319 667.406 35.1665C666.782 36.301 666.329 37.3788 666.045 38.3999L663.535 43.2501L671.406 41.8887H690.424ZM722.749 31.465L726.621 24.7428C727.415 24.1471 728.323 23.6649 729.344 23.2962C730.365 22.9275 731.414 22.658 732.492 22.4878C733.57 22.2893 734.648 22.1617 735.725 22.1049C736.832 22.0482 737.881 22.0198 738.874 22.0198C741.001 22.0198 742.816 22.1191 744.32 22.3177C745.823 22.4878 747.085 22.7148 748.106 22.9984C749.156 23.282 749.992 23.5799 750.616 23.8919C751.24 24.1755 751.723 24.4308 752.063 24.6577L754.19 36.7832L747.808 37.6341L745.681 30.061C745.454 29.9759 745.1 29.8908 744.618 29.8057C744.135 29.7206 743.582 29.6355 742.958 29.5504C742.334 29.4653 741.668 29.3944 740.959 29.3377C740.278 29.281 739.625 29.2526 739.001 29.2526C737.073 29.2526 735.286 29.4795 733.641 29.9333C731.996 30.3588 730.492 30.9544 729.131 31.7203C727.769 32.4861 726.55 33.3795 725.472 34.4006C724.423 35.4217 723.515 36.4995 722.749 37.6341V69.5433H715.091V22.7431L722.749 21.8922V31.465ZM808.682 69.5433H800.173V62.6509L796.173 67.4161C795.691 67.7848 795.067 68.1393 794.301 68.4797C793.564 68.8201 792.77 69.1321 791.919 69.4157C791.068 69.671 790.203 69.8695 789.324 70.0113C788.444 70.1815 787.608 70.2666 786.813 70.2666C784.686 70.2666 782.545 69.9404 780.389 69.2881C778.233 68.6073 776.29 67.6288 774.56 66.3524C772.83 65.0477 771.412 63.4451 770.306 61.5448C769.228 59.616 768.689 57.4036 768.689 54.9076C768.689 52.2698 769.242 50.0007 770.348 48.1003C771.483 46.1716 772.958 44.5832 774.773 43.3352C776.588 42.0872 778.659 41.1654 780.985 40.5697C783.311 39.9741 785.665 39.6763 788.047 39.6763C790.742 39.6763 793.082 39.8323 795.067 40.1443C797.053 40.4279 798.755 40.8392 800.173 41.3781V39.5487C800.173 37.8752 799.96 36.3719 799.535 35.0388C799.138 33.7057 798.499 32.5853 797.62 31.6777C796.741 30.7417 795.606 30.0326 794.216 29.5504C792.855 29.0682 791.224 28.8272 789.324 28.8272C787.537 28.8272 785.991 28.9406 784.686 29.1675C783.41 29.3661 782.219 29.593 781.112 29.8482C780.46 29.9901 779.836 30.1461 779.24 30.3162C778.645 30.4864 778.063 30.6566 777.496 30.8268L774.433 25.1257C775.624 24.5868 777.042 24.0762 778.687 23.594C780.049 23.1969 781.595 22.8424 783.325 22.5304C785.083 22.19 787.225 22.0198 789.749 22.0198C793.011 22.0198 795.791 22.4595 798.088 23.3388C800.386 24.218 802.258 25.4519 803.704 27.0402C805.151 28.6286 806.2 30.5432 806.852 32.7839C807.505 34.9963 807.831 37.4639 807.831 40.1868V61.8851L808.682 69.5433ZM800.173 47.2069L797.62 46.8665C797.223 46.8381 796.698 46.7956 796.046 46.7389C795.393 46.6821 794.684 46.6396 793.919 46.6112L791.664 46.5261C790.926 46.4978 790.288 46.4836 789.749 46.4836C788.161 46.4836 786.601 46.6254 785.069 46.9091C783.537 47.1927 782.162 47.6607 780.942 48.3131C779.751 48.9654 778.772 49.8305 778.006 50.9083C777.269 51.9578 776.9 53.2767 776.9 54.8651C776.9 56.1415 777.184 57.3044 777.751 58.3538C778.318 59.4033 779.07 60.3109 780.006 61.0768C780.971 61.8426 782.063 62.4382 783.282 62.8637C784.53 63.2608 785.821 63.4593 787.154 63.4593C789.792 63.4593 792.16 62.9629 794.259 61.9702C796.358 60.9491 798.329 59.5877 800.173 57.8858V47.2069ZM841.092 53.5462C841.092 55.4182 841.192 56.9924 841.39 58.2687C841.617 59.5167 841.929 60.5378 842.326 61.332C842.752 62.0978 843.262 62.6509 843.858 62.9913C844.482 63.3033 845.191 63.4593 845.985 63.4593C847.318 63.4593 848.637 63.3033 849.942 62.9913C851.247 62.6793 852.466 62.3248 853.601 61.9277C854.735 61.5022 855.742 61.0909 856.622 60.6938C857.501 60.2684 858.182 59.9564 858.664 59.7578L861.599 64.9059C861.344 65.1328 860.72 65.544 859.727 66.1397C858.763 66.707 857.529 67.3026 856.026 67.9266C854.551 68.5506 852.878 69.0895 851.006 69.5433C849.134 70.0255 847.176 70.2666 845.134 70.2666C842.581 70.2666 840.525 69.7986 838.965 68.8626C837.433 67.9266 836.256 66.6502 835.434 65.0335C834.611 63.4168 834.072 61.5448 833.817 59.4175C833.562 57.2618 833.434 54.9644 833.434 52.5251V29.5504H821.053V22.7431H833.434V13.8511L840.88 9.12851V22.7431H861.472L860.621 29.5504H841.092V53.5462ZM899.754 70.2666C896.605 70.2666 893.712 69.6568 891.074 68.4371C888.465 67.1891 886.21 65.4873 884.309 63.3317C882.409 61.1477 880.92 58.5807 879.842 55.6309C878.793 52.6811 878.268 49.476 878.268 46.0156C878.268 42.5836 878.779 39.4068 879.8 36.4854C880.821 33.5355 882.267 30.997 884.139 28.8697C886.011 26.714 888.266 25.0406 890.904 23.8493C893.57 22.6297 896.52 22.0198 899.754 22.0198C902.902 22.0198 905.767 22.6297 908.348 23.8493C910.929 25.0406 913.141 26.714 914.985 28.8697C916.857 30.997 918.303 33.5355 919.325 36.4854C920.346 39.4068 920.856 42.5836 920.856 46.0156C920.856 49.476 920.36 52.6811 919.367 55.6309C918.403 58.5807 916.999 61.1477 915.155 63.3317C913.34 65.4873 911.127 67.1891 908.518 68.4371C905.908 69.6568 902.987 70.2666 899.754 70.2666ZM912.773 47.1643C912.773 44.8669 912.531 42.6119 912.049 40.3996C911.567 38.1872 910.801 36.2159 909.752 34.4857C908.702 32.7272 907.341 31.309 905.667 30.2312C903.994 29.1533 901.966 28.6144 899.583 28.6144C897.314 28.6144 895.343 29.0824 893.67 30.0184C891.996 30.9544 890.62 32.2024 889.543 33.7624C888.465 35.3225 887.656 37.0952 887.117 39.0807C886.607 41.0661 886.352 43.1083 886.352 45.2072C886.352 47.5047 886.607 49.7596 887.117 51.972C887.656 54.1844 888.465 56.1556 889.543 57.8858C890.649 59.616 892.053 61.02 893.755 62.0978C895.485 63.1473 897.541 63.672 899.924 63.672C902.164 63.672 904.093 63.204 905.71 62.268C907.355 61.332 908.688 60.0982 909.709 58.5666C910.759 57.0066 911.525 55.248 912.007 53.2909C912.517 51.3054 912.773 49.2632 912.773 47.1643ZM944.119 31.465L947.991 24.7428C948.785 24.1471 949.693 23.6649 950.714 23.2962C951.735 22.9275 952.784 22.658 953.862 22.4878C954.94 22.2893 956.018 22.1617 957.096 22.1049C958.202 22.0482 959.251 22.0198 960.244 22.0198C962.371 22.0198 964.187 22.1191 965.69 22.3177C967.193 22.4878 968.455 22.7148 969.477 22.9984C970.526 23.282 971.363 23.5799 971.987 23.8919C972.611 24.1755 973.093 24.4308 973.433 24.6577L975.561 36.7832L969.179 37.6341L967.051 30.061C966.825 29.9759 966.47 29.8908 965.988 29.8057C965.506 29.7206 964.953 29.6355 964.329 29.5504C963.705 29.4653 963.038 29.3944 962.329 29.3377C961.648 29.281 960.996 29.2526 960.372 29.2526C958.443 29.2526 956.656 29.4795 955.011 29.9333C953.366 30.3588 951.863 30.9544 950.501 31.7203C949.14 32.4861 947.92 33.3795 946.842 34.4006C945.793 35.4217 944.885 36.4995 944.119 37.6341V69.5433H936.461V22.7431L944.119 21.8922V31.465Z" fill="#3C17FF"/>
</svg>
