<svg width="190" height="32" viewBox="0 0 190 32" fill="none" xmlns="http://www.w3.org/2000/svg"><g clip-path="url(#clip0_113_32522)"><g fill="currentColor"><path d="M44.4978 10.7227C45.4427 10.7227 46.3152 10.9578 47.119 11.4356C47.9191 11.9096 48.5526 12.5527 49.0233 13.3685C49.4903 14.1806 49.7256 15.0662 49.7256 16.029C49.7256 16.606 49.6387 17.1645 49.465 17.7011C49.2912 18.2413 49.0414 18.73 48.7192 19.1636C48.397 19.5973 48.0204 19.9794 47.5932 20.3065C47.166 20.6335 46.6845 20.8871 46.1523 21.0635C45.6201 21.2399 45.0698 21.3281 44.5014 21.3281H42.293V19.4944H44.5014C44.8707 19.4944 45.2291 19.4356 45.5767 19.3216C45.9242 19.2077 46.2392 19.0387 46.518 18.8219C46.7968 18.6051 47.0429 18.3552 47.2565 18.0722C47.4701 17.7893 47.6331 17.4732 47.7489 17.1168C47.8648 16.764 47.9191 16.4002 47.9191 16.0254C47.9191 15.0662 47.586 14.2468 46.9198 13.5706C46.2537 12.8945 45.4464 12.5564 44.5014 12.5564H42.293V10.7227H44.5014H44.4978Z"></path><path d="M60.2319 12.5564H52.8717V10.7227H60.2319V12.5564ZM58.9937 16.9514H52.8753V15.103H58.9937V16.9514ZM60.2319 21.3281H52.8717V19.4944H60.2319V21.3281Z"></path><path d="M65.1846 19.4944H70.7382V21.3281H63.378V10.7227H65.1846V19.4944Z"></path><path d="M78.1852 10.7227C79.0324 10.7227 79.7529 11.024 80.3502 11.6303C80.9476 12.2367 81.2444 12.9679 81.2444 13.8278C81.2444 14.6877 80.9476 15.419 80.3502 16.0254C79.7529 16.6317 79.0324 16.933 78.1852 16.933H75.6944V21.3281H73.8879V15.0993H78.1852C78.5328 15.0993 78.8297 14.9744 79.0722 14.7282C79.3148 14.482 79.4379 14.1806 79.4379 13.8278C79.4379 13.4751 79.3148 13.1737 79.0722 12.9275C78.8297 12.6813 78.5328 12.5564 78.1852 12.5564H73.8879V10.7227H78.1852Z"></path><path d="M90.5741 10.7227H92.3807V21.3281H90.5741V16.9514H86.2007V21.3281H84.3942V10.7227H86.2007V15.0993H90.5741V10.7227Z"></path><path d="M97.337 21.3281H95.5304V10.7227H97.337V21.3281Z"></path><path d="M114.219 10.7227H116.145L112.34 21.3281H110.414L106.609 10.7227H108.535L111.369 18.6455L114.222 10.7227H114.219Z"></path><path d="M126.636 12.5564H119.276V10.7227H126.636V12.5564ZM125.398 16.9514H119.28V15.103H125.398V16.9514ZM126.636 21.3281H119.276V19.4944H126.636V21.3281Z"></path><path d="M135.669 10.7227H137.476V21.3281H135.669L131.593 14.3423V21.3281H129.786V10.7227H131.593L135.669 17.7231V10.7227Z"></path><path d="M140.607 10.7227H147.968V12.5564H145.191V21.3281H143.384V12.5564H140.607V10.7227Z"></path><path d="M156.671 10.7227H158.478V17.5871C158.478 18.6271 158.119 19.5127 157.402 20.2367C156.685 20.9643 155.82 21.3281 154.806 21.3281C153.793 21.3281 152.924 20.9643 152.203 20.2367C151.483 19.5091 151.121 18.6271 151.121 17.5871V10.7227H152.928V17.5871C152.928 18.1126 153.112 18.561 153.481 18.9358C153.851 19.3106 154.292 19.498 154.81 19.498C155.328 19.498 155.766 19.3106 156.132 18.9358C156.494 18.561 156.675 18.1126 156.675 17.5871V10.7227H156.671Z"></path><path d="M168.984 13.8278C168.984 14.4232 168.828 14.9707 168.52 15.4631C168.213 15.9592 167.804 16.3377 167.297 16.5986L168.984 21.3244H167.058L165.49 16.9477H161.624V15.0993H165.921C166.269 15.0993 166.565 14.9744 166.808 14.7282C167.051 14.482 167.174 14.1843 167.174 13.8352C167.174 13.4861 167.051 13.1848 166.808 12.9349C166.565 12.6813 166.269 12.5564 165.921 12.5564H161.624V10.7227H165.921C166.768 10.7227 167.489 11.024 168.086 11.6303C168.683 12.2367 168.98 12.9679 168.98 13.8278H168.984Z"></path><path d="M179.494 12.5564H172.134V10.7227H179.494V12.5564ZM178.256 16.9514H172.137V15.103H178.256V16.9514ZM179.494 21.3281H172.134V19.4944H179.494V21.3281Z"></path><path d="M186.941 15.103C187.788 15.103 188.508 15.408 189.106 16.018C189.703 16.628 190 17.363 190 18.2229C190 19.0828 189.7 19.8141 189.106 20.4204C188.508 21.0267 187.788 21.3281 186.941 21.3281H182.643V19.4944H186.941C187.288 19.4944 187.585 19.3694 187.828 19.1232C188.07 18.877 188.193 18.5757 188.193 18.2229C188.193 17.8701 188.07 17.5688 187.828 17.3226C187.585 17.0764 187.288 16.9514 186.941 16.9514H185.703C184.855 16.9514 184.135 16.6464 183.538 16.0327C182.94 15.4227 182.643 14.6877 182.643 13.8278C182.643 12.9679 182.94 12.2367 183.538 11.6303C184.135 11.024 184.855 10.7227 185.703 10.7227H189.388V12.5564H185.703C185.362 12.5564 185.069 12.6813 184.823 12.9349C184.573 13.1884 184.45 13.4861 184.45 13.8352C184.45 14.1843 184.573 14.482 184.823 14.7282C185.073 14.9744 185.366 15.0993 185.703 15.0993H186.941V15.103Z"></path></g><path d="M20.5236 3.25218C20.1688 3.41387 19.8068 3.60864 19.4339 3.8475C19.2637 3.95039 19.1044 4.05696 18.9487 4.16353C18.7062 3.68213 17.6563 1.83739 15.8787 1.83739H15.8678C15.3537 1.87046 13.0113 2.19017 12.3199 5.35048L12.3126 5.37621C12.233 5.70326 12.1714 6.05237 12.1099 6.41984C11.9397 7.43041 11.7478 8.57694 10.9984 9.66468C9.9992 11.1346 8.45331 11.785 7.47581 12.0606C7.33462 11.8475 7.19342 11.6417 7.05585 11.4469C6.85311 11.1566 6.65761 10.8774 6.4947 10.6017L6.48021 10.576C6.44763 10.5246 6.41867 10.4731 6.38609 10.4217C6.5128 10.4033 8.49313 10.113 9.50683 8.61736C10.0282 7.86403 10.1694 7.01516 10.3214 6.11484C10.3866 5.73266 10.4517 5.33578 10.5495 4.94258C11.3206 1.46256 13.8549 0.106569 15.7918 0H15.828C15.828 0 15.8642 0 15.8787 0C18.5903 0 20.0783 2.39963 20.5236 3.25218ZM5.02845 12.9095C5.54978 13.6555 6.03853 14.3574 6.19783 15.2614C6.52366 17.0473 5.32532 18.6716 5.24567 18.7781C5.3036 18.7928 5.3579 18.8075 5.41945 18.8222L5.44479 18.8296C5.75614 18.9104 6.08197 18.9655 6.42591 19.0243C6.66485 19.0648 6.90742 19.1089 7.15722 19.1566C7.65683 18.2637 8.29763 16.6945 7.97904 14.938C7.75458 13.6334 7.09205 12.6853 6.50556 11.8475C6.29196 11.5425 6.09284 11.2559 5.91906 10.9655L5.90458 10.9435C4.19215 8.21314 5.62581 6.30593 5.96612 5.91272C7.22239 4.63022 9.25703 5.18144 9.76388 5.34681C9.80008 5.15939 9.83991 4.9683 9.88697 4.77354C9.98472 4.33624 10.1042 3.93937 10.2418 3.56821C9.32944 3.28158 6.57434 2.64584 4.65555 4.63757L4.63021 4.66697C3.33412 6.13321 2.48696 8.90767 4.36593 11.9173C4.57229 12.2664 4.80037 12.5935 5.02121 12.9095H5.02845ZM9.5177 20.8323C8.44969 20.0717 7.32014 19.8769 6.32092 19.7042C5.95888 19.6417 5.61495 19.5829 5.29274 19.4984L5.26739 19.491C2.15389 18.7892 1.83891 16.4116 1.80633 15.8898C1.79909 14.0781 3.62013 13.0124 4.09802 12.7625C3.99303 12.6045 3.88804 12.4391 3.78667 12.2701C3.55134 11.8916 3.35947 11.5241 3.20017 11.164C2.35663 11.6197 -0.0291898 13.1484 -0.000226886 15.9339V15.9706C0.104763 17.9366 1.44068 20.509 4.86553 21.288C5.25291 21.3872 5.64391 21.4534 6.02043 21.5195C6.90742 21.6739 7.74372 21.8172 8.48589 22.3463C9.95938 23.3753 10.2454 25.3817 10.2635 25.514C10.3142 25.4846 10.3649 25.4552 10.4155 25.4221L10.4409 25.4074C10.716 25.2384 10.9876 25.0436 11.2736 24.8378C11.4691 24.6982 11.6718 24.5512 11.8818 24.4116C11.6103 23.4231 10.9731 21.8503 9.52131 20.836L9.5177 20.8323ZM14.7129 23.8971C13.4277 24.1249 12.4936 24.7974 11.6682 25.3927C11.3677 25.6096 11.0853 25.8117 10.7993 25.9881L10.7776 26.0028C8.08765 27.7409 6.20869 26.2857 5.82131 25.9403C4.55418 24.6651 5.10086 22.5999 5.26377 22.0854C5.07914 22.0487 4.89088 22.0083 4.699 21.9605C4.26818 21.8613 3.87718 21.74 3.51152 21.6004C3.22913 22.5264 2.60281 25.3229 4.56504 27.2706L4.59401 27.2963C5.43393 28.0643 6.71192 28.6743 8.22161 28.6743C9.30409 28.6743 10.5024 28.3583 11.7406 27.5609C12.0845 27.3514 12.4067 27.1199 12.7181 26.8957C13.453 26.3666 14.1445 25.8705 15.0351 25.7088C16.7946 25.378 18.3948 26.5944 18.4998 26.6752C18.5143 26.6164 18.5288 26.5613 18.5432 26.4988L18.5505 26.4731C18.6301 26.1534 18.6844 25.819 18.746 25.4662C18.7858 25.2274 18.8256 24.9848 18.8763 24.735C17.9966 24.2278 16.4507 23.5774 14.7201 23.9008L14.7129 23.8971ZM25.0382 21.4277L25.0237 21.4019C24.8572 21.1226 24.6653 20.847 24.4625 20.5567C24.325 20.3583 24.1838 20.1525 24.0426 19.943C23.0687 20.2186 21.5192 20.8654 20.52 22.339C19.7705 23.4231 19.5787 24.5696 19.4085 25.5838C19.347 25.9513 19.289 26.3004 19.2058 26.6275L19.1985 26.6532C18.507 29.8135 16.1647 30.1332 15.6506 30.1663C13.8694 30.1773 12.8122 28.3215 12.5697 27.8401C12.414 27.9467 12.2511 28.0533 12.0845 28.1562C11.7225 28.3877 11.3605 28.5825 10.9912 28.7515C11.4329 29.6004 12.9208 32.0073 15.6361 32.0073C15.6542 32.0073 15.6687 32.0073 15.6868 32.0073H15.723C17.6599 31.9008 20.1941 30.5448 20.9616 27.0684C21.0594 26.6752 21.1246 26.2784 21.1897 25.8962C21.3418 24.9959 21.483 24.147 22.0043 23.3937C23.018 21.898 24.9983 21.6077 25.1251 21.5893C25.0961 21.5379 25.0635 21.4864 25.0309 21.435L25.0382 21.4277ZM27.1488 20.079C26.9425 19.7299 26.7144 19.4028 26.4936 19.0868C25.9722 18.3408 25.4835 17.639 25.3242 16.735C24.9983 14.949 26.1967 13.3248 26.2763 13.2182C26.2184 13.2035 26.1641 13.1888 26.1026 13.1741L26.0772 13.1667C25.7659 13.0859 25.44 13.0308 25.0961 12.972C24.8572 12.9316 24.6146 12.8875 24.3648 12.8397C23.8652 13.7327 23.2244 15.3018 23.543 17.0583C23.7674 18.3629 24.43 19.311 25.0164 20.1488C25.23 20.4538 25.4292 20.7405 25.6029 21.0308L25.6174 21.0528C27.3299 23.7832 25.8962 25.6904 25.5559 26.0836C24.2996 27.3698 22.265 26.8149 21.7581 26.6495C21.7219 26.8369 21.6821 27.028 21.635 27.2228C21.5373 27.6601 21.4178 28.057 21.2802 28.4281C21.6893 28.5567 22.4677 28.7552 23.38 28.7552C24.4951 28.7552 25.8093 28.4538 26.8665 27.3587L26.8918 27.3294C28.1879 25.8631 29.035 23.0887 27.1561 20.079H27.1488ZM31.5222 16.0257C31.4209 14.0597 30.0849 11.4874 26.6565 10.7083C26.2691 10.6091 25.8781 10.5429 25.5016 10.4768C24.6146 10.3225 23.7783 10.1791 23.0361 9.64998C21.5626 8.62104 21.2766 6.61461 21.2585 6.48231C21.2078 6.51171 21.1571 6.54111 21.1065 6.57418L21.0847 6.58888C20.806 6.75792 20.5344 6.95636 20.2448 7.16215C20.0529 7.30179 19.8502 7.44511 19.6438 7.58475C19.9154 8.57327 20.5525 10.1461 22.0043 11.1603C23.0723 11.921 24.2019 12.1158 25.2011 12.2885C25.5631 12.3509 25.9071 12.4097 26.2293 12.4943L26.2546 12.5016C29.3681 13.2035 29.6831 15.5811 29.7157 16.1029C29.7229 17.9146 27.9019 18.9802 27.424 19.2301C27.529 19.3881 27.634 19.5535 27.7353 19.7226C27.9707 20.1011 28.1625 20.4685 28.3218 20.8287C29.169 20.3767 31.5548 18.848 31.5259 16.0625V16.0257H31.5222ZM25.6971 6.05971C26.9642 7.33486 26.4175 9.40009 26.2546 9.91456C26.4392 9.95131 26.6275 9.99173 26.8194 10.0395C27.2502 10.1387 27.6412 10.26 28.0069 10.3996C28.2893 9.47359 28.9156 6.67708 26.9533 4.72944L26.9244 4.70372C25.4799 3.38447 22.7465 2.52825 19.7814 4.43546C19.4375 4.64492 19.1153 4.87644 18.8039 5.1006C18.069 5.62977 17.3775 6.12586 16.4869 6.28755C14.731 6.61828 13.1272 5.40193 13.0222 5.32108C13.0077 5.37988 12.9932 5.435 12.9788 5.49747L12.9715 5.5232C12.8919 5.8429 12.8376 6.17731 12.776 6.53009C12.7362 6.76895 12.6964 7.01148 12.6457 7.26504C13.5254 7.77216 15.0749 8.4226 16.8019 8.09922C18.0871 7.87138 19.0211 7.1989 19.8466 6.60358C20.1471 6.38677 20.4295 6.18466 20.7155 6.00827L20.7372 5.99357C23.4271 4.2554 25.3061 5.71061 25.6935 6.05604L25.6971 6.05971Z" fill="url(#paint0_linear_113_32522)"></path></g><defs><linearGradient id="paint0_linear_113_32522" x1="4.61573" y1="4.68535" x2="27.2425" y2="26.977" gradientUnits="userSpaceOnUse"><stop stop-color="#EFF8F2"></stop><stop offset="1" stop-color="#9C9D9B"></stop></linearGradient><clipPath id="clip0_113_32522"><rect width="190" height="32" fill="white"></rect></clipPath></defs></svg>
