<svg width="206.71875" height="45" viewBox="0 0 147 32" fill="none" xmlns="http://www.w3.org/2000/svg"><g clip-path="url(#clip0_113_32556)"><g fill="currentColor"><path d="M44.4914 10.7236C45.4381 10.7236 46.3086 10.9593 47.1102 11.4343C47.9118 11.9094 48.5466 12.5538 49.0145 13.3676C49.4824 14.1814 49.7146 15.0689 49.7146 16.0263C49.7146 16.6007 49.6275 17.1605 49.4534 17.7018C49.2793 18.2431 49.029 18.7292 48.7062 19.1637C48.3834 19.5982 48.0061 19.9812 47.5781 20.3089C47.1501 20.6366 46.6713 20.8907 46.1381 21.0675C45.6049 21.2442 45.0572 21.3326 44.4877 21.3326H42.2788V19.4988H44.4877C44.8541 19.4988 45.2132 19.4399 45.5614 19.3257C45.9096 19.2079 46.2216 19.0422 46.5008 18.8249C46.7801 18.6076 47.0268 18.3572 47.2408 18.0737C47.4548 17.7901 47.618 17.4735 47.7341 17.12C47.8465 16.7664 47.9046 16.4019 47.9046 16.03C47.9046 15.0689 47.5709 14.2514 46.9035 13.5738C46.2361 12.8962 45.4308 12.5575 44.4841 12.5575H42.2751V10.7236H44.4841H44.4914Z"></path><path d="M60.219 12.5575H52.863V10.7236H60.219V12.5575ZM58.9785 16.9506H52.8594V15.102H58.9785V16.9506ZM60.219 21.3289H52.863V19.4951H60.219V21.3289Z"></path><path d="M65.1737 19.4951H70.727V21.3289H63.371V10.7236H65.1773V19.4951H65.1737Z"></path><path d="M78.1736 10.7236C79.0188 10.7236 79.7406 11.0256 80.3391 11.6332C80.9375 12.2408 81.235 12.9699 81.235 13.8316C81.235 14.6933 80.9375 15.4224 80.3391 16.03C79.7406 16.6376 79.0224 16.9395 78.1736 16.9395H75.6817V21.3326H73.8754V15.1057H78.1736C78.5218 15.1057 78.8193 14.9805 79.0623 14.7338C79.3053 14.487 79.4286 14.1851 79.4286 13.8316C79.4286 13.4781 79.3053 13.1761 79.0623 12.9294C78.8193 12.6827 78.5218 12.5575 78.1736 12.5575H73.8754V10.7236H78.1736Z"></path><path d="M90.5606 10.7236H92.3669V21.3289H90.5606V16.9506H86.1898V21.3289H84.3834V10.7236H86.1898V15.102H90.5606V10.7236Z"></path><path d="M97.3217 21.3289H95.5154V10.7236H97.3217V21.3289Z"></path><path d="M108.392 19.4951H113.945V21.3289H106.589V10.7236H108.396V19.4951H108.392Z"></path><path d="M122.378 10.7236L126.183 21.3289H124.257L121.406 13.4044L118.57 21.3289H116.644L120.449 10.7236H122.375H122.378Z"></path><path d="M135.542 15.7094C135.93 16.004 136.238 16.3685 136.467 16.8067C136.695 17.2449 136.811 17.72 136.811 18.2244C136.811 19.0824 136.51 19.8152 135.908 20.4228C135.306 21.0304 134.58 21.3324 133.735 21.3324H129.317V19.4986H133.735C134.084 19.4986 134.381 19.3734 134.624 19.1193C134.867 18.8652 134.99 18.5669 134.99 18.2171C134.99 17.8673 134.867 17.5727 134.624 17.3223C134.381 17.0755 134.084 16.9503 133.735 16.9503H129.317V15.1018H133.122C133.471 15.1018 133.768 14.9766 134.011 14.7299C134.254 14.4831 134.377 14.1812 134.377 13.8277C134.377 13.4742 134.254 13.1722 134.004 12.9255C133.753 12.6788 133.46 12.5536 133.122 12.5536H129.317V10.7197H133.122C133.967 10.7197 134.689 11.0217 135.288 11.6293C135.886 12.2369 136.184 12.966 136.184 13.8277C136.184 14.5163 135.97 15.1423 135.542 15.7057V15.7094Z"></path><path d="M143.942 15.1018C144.787 15.1018 145.509 15.4074 146.108 16.0187C146.706 16.63 147.004 17.3664 147.004 18.2244C147.004 19.0824 146.706 19.8152 146.108 20.4228C145.509 21.0304 144.791 21.3324 143.942 21.3324H139.644V19.4986H143.942C144.29 19.4986 144.588 19.3734 144.831 19.1266C145.074 18.8799 145.197 18.578 145.197 18.2244C145.197 17.8709 145.074 17.569 144.831 17.3223C144.588 17.0755 144.29 16.9503 143.942 16.9503H142.702C141.857 16.9503 141.135 16.6447 140.536 16.0334C139.938 15.4221 139.64 14.6857 139.64 13.8277C139.64 12.9697 139.938 12.2369 140.536 11.6293C141.135 11.0217 141.853 10.7197 142.702 10.7197H146.387V12.5536H142.702C142.364 12.5536 142.071 12.6788 141.82 12.9328C141.57 13.1869 141.447 13.4852 141.447 13.835C141.447 14.1849 141.57 14.4831 141.82 14.7299C142.071 14.9766 142.361 15.1018 142.702 15.1018H143.942Z"></path></g><path d="M20.5225 3.25155C20.1671 3.41358 19.8043 3.60875 19.4307 3.8481C19.2603 3.95121 19.1007 4.058 18.9447 4.16479C18.7017 3.68239 17.6534 1.8412 15.8761 1.8412H15.8652C15.3501 1.87434 13.0106 2.19471 12.3178 5.3542L12.3105 5.37998C12.2307 5.70771 12.1727 6.05754 12.111 6.42578C11.9406 7.43844 11.7483 8.58366 11.0011 9.66996C10.0036 11.1429 8.4548 11.791 7.47908 12.0635C7.33762 11.8499 7.19616 11.6474 7.05833 11.4486C6.8552 11.1577 6.66296 10.8815 6.49611 10.6016L6.4816 10.5758C6.44896 10.5243 6.41994 10.4727 6.39092 10.4212C6.51787 10.4028 8.49833 10.1119 9.51032 8.6168C10.029 7.86559 10.1741 7.01496 10.3228 6.11646C10.3881 5.73349 10.4534 5.33947 10.5513 4.94545C11.3167 1.46191 13.8521 0.106789 15.789 0H15.8253C15.8253 0 15.8579 0 15.8761 0C18.5892 0 20.0764 2.39724 20.5189 3.25155H20.5225ZM5.03072 12.9105C5.54941 13.6543 6.04271 14.3577 6.19868 15.2635C6.5215 17.0495 5.32815 18.6734 5.24835 18.7802C5.30638 18.7949 5.36079 18.8097 5.42245 18.8244L5.44785 18.8318C5.75979 18.9128 6.08623 18.968 6.43082 19.0269C6.66659 19.0674 6.91324 19.1116 7.16352 19.1595C7.66044 18.2647 8.30246 16.696 7.98327 14.9395C7.75838 13.6322 7.0946 12.6858 6.51062 11.8499C6.29661 11.5443 6.09712 11.2571 5.92664 10.9662L5.91213 10.9441C4.20008 8.21542 5.63283 6.30426 5.97379 5.91392C7.22881 4.62877 9.26367 5.18113 9.77148 5.34684C9.80775 5.15903 9.84765 4.96755 9.89481 4.77606C9.98911 4.34154 10.1124 3.94016 10.2503 3.57192C9.33622 3.28469 6.58679 2.65132 4.66437 4.6435L4.63898 4.67296C3.34044 6.13855 2.4953 8.91508 4.37419 11.9236C4.58094 12.2697 4.80946 12.5975 5.03072 12.9142V12.9105ZM9.5212 20.8313C8.45118 20.069 7.32311 19.8739 6.32563 19.7045C5.96291 19.6419 5.62195 19.583 5.2955 19.502L5.27011 19.4946C2.15796 18.7913 1.8424 16.4161 1.80975 15.8932C1.8025 14.0815 3.62336 13.0136 4.09852 12.7669C3.99333 12.6085 3.88814 12.4465 3.78658 12.2734C3.55081 11.8941 3.35857 11.5259 3.19897 11.165C2.35746 11.6216 -0.0292437 13.1461 -0.000225996 15.9337V15.9705C0.104963 17.9369 1.43978 20.5109 4.86749 21.2879C5.2556 21.3873 5.64371 21.4536 6.02095 21.5199C6.90598 21.6746 7.74387 21.8182 8.48382 22.3448C9.95647 23.3722 10.243 25.3827 10.2612 25.5116C10.3119 25.4822 10.3627 25.4527 10.4135 25.4196L10.4389 25.4048C10.7146 25.2354 10.9866 25.044 11.2731 24.8377C11.469 24.6978 11.6721 24.5542 11.8789 24.4106C11.6069 23.42 10.9685 21.8476 9.5212 20.835V20.8313ZM14.7154 23.8951C13.4277 24.1234 12.4955 24.7972 11.6721 25.3901C11.3711 25.6074 11.0882 25.8099 10.8016 25.983L10.7798 25.9977C8.09208 27.7358 6.20956 26.2812 5.82508 25.9351C4.55918 24.661 5.10326 22.5952 5.26649 22.0796C5.0815 22.0428 4.89288 22.0023 4.70427 21.9544C4.27626 21.8587 3.88089 21.7335 3.51817 21.5936C3.23525 22.5215 2.61137 25.3128 4.57369 27.2644L4.60271 27.2902C5.44422 28.0562 6.721 28.6711 8.22992 28.6711C9.31083 28.6711 10.5078 28.3581 11.7483 27.559C12.0893 27.3491 12.4121 27.1171 12.724 26.8925C13.4567 26.3659 14.1495 25.8651 15.0418 25.7068C16.801 25.3791 18.4006 26.5906 18.5058 26.6716C18.5203 26.6127 18.5348 26.5574 18.5493 26.4948L18.5566 26.469C18.6364 26.1487 18.6908 25.8173 18.7488 25.4601C18.7887 25.2207 18.8286 24.9777 18.8794 24.7273C17.998 24.2228 16.4528 23.571 14.7226 23.8951H14.7154ZM25.0384 21.4242L25.0239 21.3984C24.8607 21.1185 24.6648 20.8423 24.4617 20.5514C24.3239 20.3526 24.1824 20.1501 24.0409 19.9365C23.0652 20.2127 21.5164 20.8608 20.5189 22.33C19.7681 23.4163 19.5758 24.5616 19.409 25.5742C19.3473 25.9425 19.2893 26.2886 19.2095 26.62L19.2022 26.6458C18.5094 29.8053 16.1699 30.1257 15.6548 30.1588C13.8739 30.1698 12.8183 28.3139 12.5753 27.8352C12.4193 27.942 12.2561 28.0488 12.0893 28.1519C11.7302 28.3839 11.3638 28.5791 10.9975 28.7448C11.44 29.5954 12.9272 32 15.6439 32C15.6621 32 15.6766 32 15.6947 32H15.731C17.6679 31.8932 20.1997 30.5381 20.9687 27.0582C21.0666 26.6642 21.1319 26.2702 21.1972 25.8872C21.3495 24.9887 21.491 24.1381 22.0097 23.3869C23.0253 21.8918 25.0021 21.6009 25.1291 21.5825C25.1001 21.531 25.0711 21.4794 25.0384 21.4278V21.4242ZM27.1495 20.0764C26.9427 19.7303 26.7142 19.4025 26.4929 19.0858C25.9742 18.342 25.4809 17.6387 25.325 16.7328C24.9985 14.9468 26.1955 13.3229 26.2753 13.2161C26.2173 13.2014 26.1629 13.1867 26.1012 13.1719L26.0758 13.1646C25.7639 13.0835 25.4374 13.0283 25.0928 12.9694C24.8571 12.9289 24.6104 12.8847 24.3601 12.8368C23.8632 13.7316 23.2212 15.3003 23.5404 17.0568C23.7653 18.3641 24.429 19.3105 25.013 20.1464C25.227 20.452 25.4265 20.7392 25.597 21.0301L25.6115 21.0522C27.3236 23.7809 25.8908 25.6921 25.5499 26.0824C24.2948 27.3675 22.26 26.8152 21.7522 26.6495C21.7159 26.8373 21.676 27.0288 21.6288 27.2203C21.5345 27.6548 21.4112 28.0562 21.2734 28.4244C21.6832 28.5533 22.4631 28.7521 23.3699 28.7521C24.4871 28.7521 25.7965 28.4539 26.8556 27.3528L26.881 27.3234C28.1796 25.8578 29.0247 23.0812 27.1458 20.0727L27.1495 20.0764ZM31.5202 16.0221C31.4187 14.0557 30.0802 11.4817 26.6562 10.7047C26.268 10.6053 25.8799 10.539 25.5027 10.4727C24.6177 10.3181 23.7798 10.1745 23.0398 9.64787C21.5672 8.62048 21.2806 6.6099 21.2625 6.48101C21.2117 6.51047 21.1609 6.53993 21.1101 6.57307L21.0884 6.5878C20.8091 6.75719 20.537 6.95236 20.2505 7.16226C20.0583 7.30219 19.8551 7.4458 19.6484 7.58573C19.9204 8.57629 20.5588 10.1487 22.0061 11.1613C23.0761 11.9236 24.2042 12.1188 25.2016 12.2881C25.5644 12.3507 25.9053 12.4097 26.2318 12.4907L26.2572 12.498C29.3693 13.2014 29.6849 15.5765 29.7175 16.0994C29.7248 17.9112 27.9039 18.9791 27.4287 19.2258C27.5339 19.3841 27.6391 19.5461 27.7407 19.7192C27.9765 20.0985 28.1687 20.4667 28.3283 20.8276C29.1734 20.3747 31.5601 18.8465 31.5311 16.0626V16.0258L31.5202 16.0221ZM25.6986 6.05754C26.9645 7.33165 26.4204 9.39747 26.2572 9.913C26.4421 9.94983 26.6308 9.99033 26.8194 10.0382C27.2474 10.1339 27.6428 10.2591 28.0055 10.3991C28.2884 9.47112 28.9123 6.67986 26.95 4.72819L26.9209 4.70242C25.4773 3.38412 22.7424 2.52612 19.779 4.4336C19.438 4.6435 19.1152 4.87549 18.8032 5.10011C18.0705 5.6267 17.3777 6.1275 16.4855 6.28585C14.7299 6.61358 13.1267 5.40207 13.0215 5.32106C13.007 5.37998 12.9924 5.43521 12.9779 5.49781L12.9707 5.52359C12.8909 5.84396 12.8365 6.17537 12.7784 6.53257C12.7385 6.77192 12.6986 7.01496 12.6479 7.26536C13.5293 7.76985 15.0745 8.42532 16.8046 8.09758C18.0887 7.86927 19.0245 7.1954 19.8479 6.60253C20.1489 6.38527 20.4319 6.18274 20.7184 6.00967L20.7402 5.99494C23.4279 4.25685 25.3105 5.71139 25.6949 6.05754H25.6986Z" fill="url(#paint0_linear_113_32556)"></path></g><defs><linearGradient id="paint0_linear_113_32556" x1="4.61721" y1="4.68769" x2="27.2429" y2="26.9744" gradientUnits="userSpaceOnUse"><stop stop-color="#755FFF"></stop><stop offset="1" stop-color="#442AE7"></stop></linearGradient><clipPath id="clip0_113_32556"><rect width="147" height="32" fill="white"></rect></clipPath></defs></svg>
