<svg width="336" height="60" viewBox="0 0 336 60" fill="none" xmlns="http://www.w3.org/2000/svg">
<g fill="currentColor">
<path d="M254.881 59.0065V1.39215H269.016V59.0065H254.881Z" />
<path d="M321.618 1.39215H335.45V59.0065H323.988L295.105 22.711L295.334 59.0065H281.428V1.39215H293.196L322.079 37.4588L321.621 1.39215H321.618Z" />
<path d="M103.546 59.0066V14.4569H90.9395V1.39215H130.292V14.46H117.685V59.0096H103.549L103.546 59.0066Z" />
<path d="M0.246094 30.4301C0.246094 12.5484 13.9234 0.32196 31.1926 0.32196C41.5844 0.32196 50.9832 4.52324 57.019 13.5414L44.5637 20.0352C41.2008 15.4503 36.8448 13.0062 31.3442 13.0062C21.6392 13.0062 14.8392 20.5704 14.8392 30.5043C14.8392 40.4383 22.2517 47.8508 30.8863 47.8508C37.9926 47.8508 43.1127 43.5722 44.0285 37.9169V37.8395H31.9568V26.9899H59.8467V29.4339C59.8467 48.2314 48.6134 59.9999 30.7347 59.9999C13.8461 59.9999 0.246094 47.8508 0.246094 30.4301Z" />
<path d="M69.543 59.0065V1.39215H83.6782V59.0065H69.543Z" />
<path d="M164.539 46.9348C155.753 46.9348 148.34 40.0574 148.34 30.2008C148.34 20.8794 155.447 13.4669 164.694 13.4669C169.248 13.4669 173.223 15.1901 176.116 18.0425C177.511 13.5875 179.683 9.42028 182.569 5.69544C177.514 2.32019 171.364 0.398987 164.768 0.398987C147.805 0.398987 133.744 13.0833 133.744 30.1235C133.744 48.0052 147.879 59.9996 164.539 59.9996C171.191 59.9996 177.387 58.1371 182.47 54.8269C179.618 51.1051 177.468 46.9131 176.091 42.4025C173.155 45.2425 169.121 46.9348 164.539 46.9348Z" />
<path d="M215.207 0.398972C204.562 0.398972 195.061 5.39533 189.458 13.3276C186.136 18.0363 184.183 23.7782 184.183 30.1235C184.183 36.4687 186.129 42.5757 189.427 47.2782C195.018 55.2507 204.5 59.9995 214.978 59.9995C232.019 59.9995 246.08 47.7732 246.08 30.2751C246.08 12.777 232.096 0.398972 215.207 0.398972ZM214.978 46.9348C206.192 46.9348 198.78 40.0574 198.78 30.2008C198.78 20.8794 205.886 13.4669 215.133 13.4669C224.38 13.4669 231.487 20.8021 231.487 30.2781C231.487 39.7542 224.38 46.9348 214.981 46.9348H214.978Z" />
</g>
</svg>
