<svg width="124" height="30" viewBox="0 0 124 30" fill="none" xmlns="http://www.w3.org/2000/svg">
<g clip-path="url(#clip0_19_833)">
<mask id="mask0_19_833" style="mask-type:luminance" maskUnits="userSpaceOnUse" x="0" y="0" width="124" height="30">
<path d="M0 0.00463867H123.771V29.9953H0V0.00463867Z" fill="white"/>
</mask>
<g mask="url(#mask0_19_833)">
<path d="M25.9469 28.4592L18.694 17.0907C19.9753 16.5118 21.1031 15.6407 21.9869 14.5472C23.2653 12.958 23.963 10.98 23.9646 8.94042C23.9646 4.01301 19.9562 0.00463867 15.0285 0.00463867H0.999209C0.73432 0.00502008 0.480388 0.110416 0.293083 0.297722C0.105777 0.485027 0.000381411 0.738958 0 1.00385V28.9961C0.000381411 29.261 0.105777 29.5149 0.293083 29.7023C0.480388 29.8896 0.73432 29.995 0.999209 29.9953H25.1051C25.2843 29.9954 25.4602 29.9472 25.6144 29.8559C25.7686 29.7646 25.8954 29.6335 25.9816 29.4763C26.0677 29.3192 26.11 29.1418 26.104 28.9627C26.098 28.7835 26.0439 28.6093 25.9474 28.4583L25.9469 28.4592ZM15.0285 1.93846C18.8892 1.93846 22.0308 5.07999 22.0308 8.94071C22.0308 10.5585 21.495 12.0776 20.4816 13.3338C19.7282 14.2651 18.7504 14.9896 17.64 15.4392L9.02634 1.93846H15.0285ZM10.8537 15.7417L13.1924 12.0646L15.5384 15.7414L10.8537 15.7417ZM12.2091 17.6755V28.0615H3.01868L9.62442 17.6755H12.2097H12.2091ZM1.93353 1.93846H6.73234L12.0453 10.2655L8.56234 15.7417H1.93382L1.93353 1.93846ZM7.33186 17.6755L1.93382 26.1643V17.6761H7.33215L7.33186 17.6755ZM14.1426 28.0615V17.6755H16.7726L23.3988 28.0615H14.1426Z" fill="#0049FF"/>
<path fill-rule="evenodd" clip-rule="evenodd" d="M38.0093 15.2895H40.7136C41.4556 15.2895 42.0563 15.1871 42.5206 14.9873C42.9846 14.7814 43.3231 14.4855 43.5414 14.1008C43.7666 13.7084 43.8814 13.2233 43.8814 12.6425C43.8814 12.0618 43.7666 11.5712 43.5414 11.1678C43.3174 10.7603 42.9751 10.4515 42.5119 10.2407H42.5114C42.0479 10.0247 41.4447 9.91397 40.6981 9.91397H38.0099V15.2895H38.0093ZM34.8369 24.0491V7.23787H41.1609C42.4488 7.23787 43.5357 7.46165 44.4169 7.91353C45.3028 8.36483 45.9733 8.99839 46.4257 9.81534C46.8834 10.6257 47.1109 11.5686 47.1109 12.6425C47.1109 13.7164 46.8808 14.6629 46.4174 15.4628C45.9589 16.2584 45.2826 16.873 44.3918 17.3073C44.3124 17.3455 44.232 17.3819 44.1508 17.4163L47.775 24.0497H44.2312L40.9579 17.95H38.0113V24.0497H34.8389L34.8369 24.0491ZM51.2862 16.4692H56.9986C56.983 15.9488 56.8646 15.4853 56.6433 15.0787C56.42 14.6555 56.0837 14.3025 55.6718 14.059C55.2626 13.8119 54.7836 13.6876 54.2317 13.6876C53.6431 13.6876 53.1292 13.8306 52.6877 14.1144C52.2506 14.3875 51.8926 14.7703 51.6493 15.2246C51.4437 15.6097 51.3205 16.0334 51.2877 16.4687L51.2862 16.4692ZM51.0613 23.5029C50.1428 22.9691 49.4355 22.2148 48.9412 21.2421C48.4466 20.2645 48.2004 19.1156 48.2004 17.7989C48.2004 16.4828 48.4461 15.3642 48.9406 14.3811C49.4401 13.3926 50.1381 12.6231 51.0348 12.0727C51.9328 11.5162 52.9856 11.2399 54.1904 11.2399C54.9687 11.2399 55.704 11.366 56.3965 11.6182C57.0906 11.8624 57.7221 12.2571 58.2458 12.774C58.7864 13.2987 59.2099 13.964 59.5164 14.7699C59.8246 15.5724 59.9766 16.5261 59.9766 17.6276V18.6075H51.2761C51.2938 19.2594 51.4231 19.8209 51.664 20.2919C51.9232 20.7939 52.2844 21.1791 52.7477 21.4477C53.2111 21.7116 53.7559 21.8442 54.3845 21.8442C54.8055 21.8442 55.1845 21.786 55.5216 21.6695C55.8466 21.5552 56.1446 21.3753 56.3971 21.1409C56.6427 20.9113 56.8287 20.6258 56.9548 20.2844L56.9758 20.2276L59.8722 20.5532L59.8518 20.6382C59.6751 21.3769 59.3384 22.0225 58.8416 22.5752C58.35 23.122 57.7221 23.5462 56.9579 23.8478C56.194 24.1448 55.3217 24.2925 54.3433 24.2925C53.0796 24.2925 51.9844 24.0301 51.0593 23.5015L51.0613 23.5029ZM70.0809 19.7898C70.3049 19.187 70.417 18.4991 70.4174 17.7263C70.4174 16.9534 70.307 16.2789 70.0887 15.6875C69.8707 15.0969 69.5477 14.6378 69.1215 14.3065C68.6981 13.9771 68.1681 13.8102 67.5262 13.8102C66.8843 13.8102 66.3941 13.9714 65.9707 14.2903C65.5447 14.6102 65.2198 15.0623 64.996 15.6465C64.7774 16.2328 64.6673 16.9249 64.6673 17.7257C64.6677 18.5262 64.7797 19.2245 65.0035 19.8207C65.2325 20.4171 65.5586 20.8785 65.9791 21.2107C66.4033 21.5348 66.9169 21.6986 67.5256 21.6986C68.1341 21.6986 68.6883 21.529 69.112 21.1951C69.5387 20.8528 69.8617 20.3853 70.0794 19.789L70.0809 19.7898ZM61.6258 28.7349V11.4023H64.6762V13.4684H64.7221C64.8755 13.1716 65.0854 12.8585 65.3519 12.5292C65.6359 12.1719 66.0197 11.8703 66.4984 11.6229C66.9846 11.3656 67.6003 11.2399 68.3403 11.2399C69.3198 11.2395 70.2038 11.4903 70.9924 11.9923C71.7872 12.4891 72.4144 13.2248 72.8755 14.1954C73.3427 15.1632 73.5742 16.3461 73.5742 17.7424C73.5742 19.1387 73.3479 20.2997 72.8914 21.2724C72.4363 22.2433 71.8149 22.9873 71.0253 23.5003C70.2369 24.0136 69.3432 24.2694 68.3481 24.2694C67.6242 24.2694 67.0175 24.1489 66.5322 23.9032C66.0529 23.661 65.6654 23.3675 65.3698 23.0228V23.0213C65.0987 22.6938 64.8838 22.3817 64.7252 22.0853V28.7343H61.6264L61.6258 28.7349ZM83.2154 11.4023H86.3142V24.0497H83.3051V21.8292H83.3045C83.0148 22.5217 82.5485 23.0893 81.9056 23.5321C81.2507 23.9871 80.4456 24.2126 79.4945 24.2126C78.6643 24.2126 77.9261 24.0281 77.2841 23.6575H77.2836C76.646 23.2806 76.1482 22.7347 75.7898 22.0236C75.4308 21.3055 75.2528 20.4416 75.2528 19.4346V11.4031H78.3517V18.9795C78.3517 19.7564 78.5645 20.3649 78.9815 20.8136C79.3991 21.2623 79.9472 21.4884 80.633 21.4884C81.054 21.4884 81.4615 21.386 81.8577 21.1798C82.2511 20.9754 82.5745 20.6701 82.8281 20.2636C83.0839 19.8562 83.2148 19.3423 83.2148 18.7183V11.4023H83.2154ZM97.0855 19.7898C97.3095 19.187 97.4216 18.4991 97.422 17.7263C97.422 16.9534 97.3119 16.2789 97.0933 15.6875C96.8756 15.0969 96.5526 14.6378 96.1264 14.3065C95.7028 13.9771 95.173 13.8102 94.5308 13.8102C93.8889 13.8102 93.3989 13.9714 92.9753 14.2903C92.5497 14.6102 92.2248 15.0623 92.0006 15.6465C91.782 16.2328 91.6719 16.9249 91.6719 17.7257C91.6723 18.5262 91.7844 19.2245 92.0084 19.8207C92.2374 20.4171 92.5635 20.8785 92.9837 21.2107C93.4079 21.5348 93.9218 21.6986 94.5302 21.6986C95.1387 21.6986 95.6938 21.529 96.1166 21.1951C96.5434 20.8528 96.8663 20.3853 97.0843 19.7898H97.0855ZM88.6304 24.0497V7.23787H91.7293V13.463C91.8823 13.1675 92.0912 12.8563 92.3559 12.5295C92.6402 12.1722 93.0238 11.8706 93.5028 11.6231C93.9887 11.3659 94.6043 11.2402 95.3443 11.2402C96.3238 11.2398 97.2079 11.4906 97.9965 11.9926C98.7912 12.4894 99.4184 13.2251 99.8795 14.1957C100.347 15.1635 100.578 16.3464 100.578 17.7427C100.578 19.139 100.352 20.3 99.8957 21.2727C99.4403 22.2436 98.8189 22.9876 98.0293 23.5006C97.2409 24.0139 96.3476 24.2697 95.3521 24.2697C94.6283 24.2697 94.0215 24.1492 93.5362 23.9035C93.0569 23.6612 92.6695 23.3678 92.3738 23.0231V23.0216C92.1014 22.6923 91.8859 22.3789 91.7273 22.0815H91.6808V24.05L88.6304 24.0497ZM115.083 23.4602C114.181 22.9045 113.485 22.1376 112.997 21.1596C112.513 20.1763 112.273 19.047 112.273 17.7741C112.273 16.5007 112.519 15.363 113.013 14.3806C113.507 13.3918 114.205 12.6224 115.107 12.0721C116.016 11.5156 117.088 11.2393 118.319 11.2393C119.343 11.2391 120.252 11.4286 121.045 11.8077C121.843 12.182 122.48 12.7139 122.954 13.4033C123.429 14.0879 123.699 14.8878 123.765 15.8002L123.771 15.8833H120.809L120.797 15.8198C120.686 15.2333 120.423 14.7468 120.007 14.3575H120.006C119.601 13.9667 119.055 13.7681 118.36 13.7681C117.773 13.7681 117.26 13.9267 116.819 14.2419C116.378 14.5527 116.031 15.0006 115.781 15.5917C115.536 16.1817 115.413 16.8926 115.413 17.7257C115.413 18.5585 115.536 19.2907 115.781 19.8922C116.026 20.4886 116.367 20.9448 116.804 21.266C117.245 21.5803 117.762 21.739 118.361 21.739C118.785 21.739 119.161 21.6601 119.49 21.5025C119.823 21.3415 120.112 21.1012 120.331 20.8026C120.557 20.4992 120.712 20.1274 120.797 19.6872L120.81 19.6246H123.771L123.765 19.7085C123.693 20.6039 123.429 21.4007 122.971 22.0957C122.513 22.7855 121.89 23.3257 121.103 23.7163C120.315 24.1025 119.392 24.2939 118.336 24.2939C117.078 24.2939 115.992 24.0171 115.083 23.4611V23.4602ZM107.826 9.30002C107.475 8.97128 107.297 8.57419 107.297 8.1128C107.297 7.6514 107.475 7.24883 107.826 6.92528C108.177 6.59711 108.598 6.43274 109.083 6.43274C109.568 6.43274 109.994 6.59711 110.339 6.92528C110.691 7.24826 110.868 7.64534 110.868 8.11222C110.868 8.57909 110.69 8.9707 110.339 9.29887C109.994 9.62185 109.573 9.78362 109.083 9.78362C108.592 9.78362 108.178 9.62185 107.826 9.29945L107.826 9.30002ZM107.524 24.0497V11.4023H110.623V24.0497H107.524ZM105.339 7.23787V24.0497H102.24V7.23787H105.339Z" fill="currentColor"/>
</g>
</g>
<defs>
<clipPath id="clip0_19_833">
<rect width="124" height="30" fill="white"/>
</clipPath>
</defs>
</svg>
