<svg width="1200" height="1200" viewBox="0 0 1200 1200" fill="none" xmlns="http://www.w3.org/2000/svg">
<rect width="1200" height="1200" fill="#F5F5F5"/>
<path d="M246.8 745L288.4 441H331.6L373.6 745H333.2L327.2 690.2H292.8L286.8 745H246.8ZM295.2 653.4H324.8L310.8 499H309.6L295.2 653.4ZM429.391 747.8C395.791 747.8 374.991 733.8 374.991 682.6V639.4H414.591V687C414.591 696.6 414.991 709 429.791 709C443.791 709 444.591 697.4 444.591 687V649.4C444.591 636.6 440.591 621.8 428.191 612.2L406.991 595.8C398.991 588.6 392.191 582.2 386.991 573.8C378.591 561 375.791 545.4 375.791 520.6V500.6C375.791 450.2 396.591 437.8 428.991 437.8C461.391 437.8 483.791 449.8 483.791 501.4V545H444.191V500.2C444.191 491.8 444.191 475.8 429.391 475.8C415.391 475.8 415.391 490.2 415.391 500.2V533.8C415.391 541 416.191 547.8 421.391 555C426.591 562.6 434.991 569.8 444.191 577.8L467.391 597C482.591 609.4 484.191 625 484.191 654.2V682.6C484.191 727 468.591 747.8 429.391 747.8ZM495.788 745V441H535.788V745H495.788ZM551.256 745V441H591.256L620.856 621H622.056L651.656 441H692.056V745H655.256V564.2H654.456L632.056 745H611.256L588.856 564.2H588.056V745H551.256ZM759.516 747.8C725.916 747.8 705.116 734.2 705.116 682.6V501.8C705.116 450.2 725.916 437.8 759.516 437.8C792.716 437.8 814.316 449.8 814.316 501.8V682.6C814.316 734.6 792.716 747.8 759.516 747.8ZM744.716 686.6C744.716 701.8 749.116 709 759.916 709C770.316 709 775.116 701.8 775.116 686.6V499.8C775.116 476.6 770.316 470.2 759.916 470.2C749.116 470.2 744.716 476.6 744.716 499.8V686.6ZM859.513 745L817.113 441H857.113C864.713 514.6 872.313 588.6 879.913 687H881.113C888.313 588.6 896.313 514.6 903.513 441H943.913L900.713 745H859.513Z" fill="#05122E"/>
</svg>
