<svg width="930" height="179" viewBox="0 0 930 179" fill="none" xmlns="http://www.w3.org/2000/svg">
<path d="M0.46 177L24.38 2.19999H49.22L73.37 177H50.14L46.69 145.49H26.91L23.46 177H0.46ZM28.29 124.33H45.31L37.26 35.55H36.57L28.29 124.33ZM105.45 178.61C86.1296 178.61 74.1696 170.56 74.1696 141.12V116.28H96.9396V143.65C96.9396 149.17 97.1696 156.3 105.68 156.3C113.73 156.3 114.19 149.63 114.19 143.65V122.03C114.19 114.67 111.89 106.16 104.76 100.64L92.5696 91.21C87.9696 87.07 84.0596 83.39 81.0696 78.56C76.2396 71.2 74.6296 62.23 74.6296 47.97V36.47C74.6296 7.48999 86.5896 0.359998 105.22 0.359998C123.85 0.359998 136.73 7.25999 136.73 36.93V62H113.96V36.24C113.96 31.41 113.96 22.21 105.45 22.21C97.3996 22.21 97.3996 30.49 97.3996 36.24V55.56C97.3996 59.7 97.8596 63.61 100.85 67.75C103.84 72.12 108.67 76.26 113.96 80.86L127.3 91.9C136.04 99.03 136.96 108 136.96 124.79V141.12C136.96 166.65 127.99 178.61 105.45 178.61ZM143.628 177V2.19999H166.628V177H143.628ZM175.522 177V2.19999H198.522L215.542 105.7H216.232L233.252 2.19999H256.482V177H235.322V73.04H234.862L221.982 177H210.022L197.142 73.04H196.682V177H175.522ZM295.271 178.61C275.951 178.61 263.991 170.79 263.991 141.12V37.16C263.991 7.48999 275.951 0.359998 295.271 0.359998C314.361 0.359998 326.781 7.25999 326.781 37.16V141.12C326.781 171.02 314.361 178.61 295.271 178.61ZM286.761 143.42C286.761 152.16 289.291 156.3 295.501 156.3C301.481 156.3 304.241 152.16 304.241 143.42V36.01C304.241 22.67 301.481 18.99 295.501 18.99C289.291 18.99 286.761 22.67 286.761 36.01V143.42ZM352.77 177L328.39 2.19999H351.39C355.76 44.52 360.13 87.07 364.5 143.65H365.19C369.33 87.07 373.93 44.52 378.07 2.19999H401.3L376.46 177H352.77Z" fill="#F37021"/>
<path d="M396.966 177V150.32H418.126V177H396.966ZM457.242 178.61C437.692 178.61 425.732 168.49 425.732 141.12V123.64H434.702V143.65C434.702 148.94 434.932 169.87 457.472 169.87C479.092 169.87 479.322 150.09 479.322 143.65V125.71C479.322 117.66 478.862 104.09 466.212 96.5L446.892 84.31C441.372 80.86 437.462 77.64 434.702 73.73C427.572 64.99 427.342 55.33 427.342 42.68V35.09C427.342 7.71999 440.452 0.359998 456.552 0.359998C472.422 0.359998 487.372 7.25999 487.372 36.93V54.64H478.172V36.24C478.172 30.72 478.172 8.87 456.552 8.87C436.312 8.87 436.312 27.96 436.312 36.47V47.05C436.312 53.95 436.312 61.31 442.292 68.44C445.052 72.35 449.652 75.8 455.402 79.71L475.642 92.36C488.292 100.41 488.522 114.21 488.522 126.17V141.12C488.522 155.38 485.992 178.61 457.242 178.61ZM523.891 177V119.04L491.921 2.19999H501.581L528.261 103.4H528.721L554.941 2.19999H564.831L533.091 119.04V177H523.891ZM599.644 178.61C580.094 178.61 568.134 168.49 568.134 141.12V123.64H577.104V143.65C577.104 148.94 577.334 169.87 599.874 169.87C621.494 169.87 621.724 150.09 621.724 143.65V125.71C621.724 117.66 621.264 104.09 608.614 96.5L589.294 84.31C583.774 80.86 579.864 77.64 577.104 73.73C569.974 64.99 569.744 55.33 569.744 42.68V35.09C569.744 7.71999 582.854 0.359998 598.954 0.359998C614.824 0.359998 629.774 7.25999 629.774 36.93V54.64H620.574V36.24C620.574 30.72 620.574 8.87 598.954 8.87C578.714 8.87 578.714 27.96 578.714 36.47V47.05C578.714 53.95 578.714 61.31 584.694 68.44C587.454 72.35 592.054 75.8 597.804 79.71L618.044 92.36C630.694 100.41 630.924 114.21 630.924 126.17V141.12C630.924 155.38 628.394 178.61 599.644 178.61ZM701.292 2.19999V10.48H672.082V177H662.882V10.48H633.672V2.19999H701.292ZM711.532 177V2.19999H760.752V10.48H720.732V80.17H757.072V88.45H720.732V168.72H763.282V177H711.532ZM773.3 177V2.19999H782.5L813.55 149.4H814.01L845.06 2.19999H854.26V177H845.75V35.32H845.29L816.77 177H810.79L782.27 35.32H781.81V177H773.3ZM898.15 178.61C878.6 178.61 866.64 168.49 866.64 141.12V123.64H875.61V143.65C875.61 148.94 875.84 169.87 898.38 169.87C920 169.87 920.23 150.09 920.23 143.65V125.71C920.23 117.66 919.77 104.09 907.12 96.5L887.8 84.31C882.28 80.86 878.37 77.64 875.61 73.73C868.48 64.99 868.25 55.33 868.25 42.68V35.09C868.25 7.71999 881.36 0.359998 897.46 0.359998C913.33 0.359998 928.28 7.25999 928.28 36.93V54.64H919.08V36.24C919.08 30.72 919.08 8.87 897.46 8.87C877.22 8.87 877.22 27.96 877.22 36.47V47.05C877.22 53.95 877.22 61.31 883.2 68.44C885.96 72.35 890.56 75.8 896.31 79.71L916.55 92.36C929.2 100.41 929.43 114.21 929.43 126.17V141.12C929.43 155.38 926.9 178.61 898.15 178.61Z" fill="white"/>
</svg>
