<svg width="1200" height="1200" viewBox="0 0 1200 1200" fill="none" xmlns="http://www.w3.org/2000/svg">
<path d="M197.578 599.062L234.141 331.875H272.109L309.023 599.062H273.516L268.242 550.898H238.008L232.734 599.062H197.578ZM240.117 518.555H266.133L253.828 382.852H252.773L240.117 518.555ZM358.058 601.523C328.527 601.523 310.246 589.219 310.246 544.219V506.25H345.05V548.086C345.05 556.523 345.402 567.422 358.41 567.422C370.714 567.422 371.418 557.227 371.418 548.086V515.039C371.418 503.789 367.902 490.781 357.003 482.344L338.371 467.93C331.339 461.602 325.363 455.977 320.793 448.594C313.41 437.344 310.949 423.633 310.949 401.836V384.258C310.949 339.961 329.23 329.062 357.707 329.062C386.183 329.062 405.871 339.609 405.871 384.961V423.281H371.066V383.906C371.066 376.523 371.066 362.461 358.058 362.461C345.753 362.461 345.753 375.117 345.753 383.906V413.438C345.753 419.766 346.457 425.742 351.027 432.07C355.597 438.75 362.98 445.078 371.066 452.109L391.457 468.984C404.816 479.883 406.222 493.594 406.222 519.258V544.219C406.222 583.242 392.511 601.523 358.058 601.523ZM416.415 599.062V331.875H451.571V599.062H416.415ZM465.167 599.062V331.875H500.323L526.339 490.078H527.393L553.409 331.875H588.917V599.062H556.573V440.156H555.87L536.182 599.062H517.901L498.214 440.156H497.51V599.062H465.167ZM648.207 601.523C618.676 601.523 600.395 589.57 600.395 544.219V385.312C600.395 339.961 618.676 329.062 648.207 329.062C677.387 329.062 696.371 339.609 696.371 385.312V544.219C696.371 589.922 677.387 601.523 648.207 601.523ZM635.199 547.734C635.199 561.094 639.066 567.422 648.559 567.422C657.699 567.422 661.918 561.094 661.918 547.734V383.555C661.918 363.164 657.699 357.539 648.559 357.539C639.066 357.539 635.199 363.164 635.199 383.555V547.734ZM736.095 599.062L698.829 331.875H733.986C740.665 396.562 747.345 461.602 754.025 548.086H755.079C761.407 461.602 768.439 396.562 774.767 331.875H810.275L772.306 599.062H736.095Z" fill="#F37021"/>
<path d="M251.367 906.523C221.484 906.523 203.203 891.055 203.203 849.219V822.5H216.914V853.086C216.914 861.172 217.266 893.164 251.719 893.164C284.766 893.164 285.117 862.93 285.117 853.086V825.664C285.117 813.359 284.414 792.617 265.078 781.016L235.547 762.383C227.109 757.109 221.133 752.187 216.914 746.211C206.016 732.852 205.664 718.086 205.664 698.75V687.148C205.664 645.312 225.703 634.062 250.313 634.062C274.57 634.062 297.422 644.609 297.422 689.961V717.031H283.359V688.906C283.359 680.469 283.359 647.07 250.313 647.07C219.375 647.07 219.375 676.25 219.375 689.258V705.43C219.375 715.977 219.375 727.227 228.516 738.125C232.734 744.102 239.766 749.375 248.555 755.352L279.492 774.687C298.828 786.992 299.18 808.086 299.18 826.367V849.219C299.18 871.016 295.313 906.523 251.367 906.523ZM353.243 904.062V815.469L304.376 636.875H319.142L359.923 791.562H360.626L400.704 636.875H415.822L367.306 815.469V904.062H353.243ZM469.034 906.523C439.151 906.523 420.87 891.055 420.87 849.219V822.5H434.581V853.086C434.581 861.172 434.932 893.164 469.385 893.164C502.432 893.164 502.784 862.93 502.784 853.086V825.664C502.784 813.359 502.081 792.617 482.745 781.016L453.214 762.383C444.776 757.109 438.799 752.187 434.581 746.211C423.682 732.852 423.331 718.086 423.331 698.75V687.148C423.331 645.312 443.37 634.062 467.979 634.062C492.237 634.062 515.089 644.609 515.089 689.961V717.031H501.026V688.906C501.026 680.469 501.026 647.07 467.979 647.07C437.042 647.07 437.042 676.25 437.042 689.258V705.43C437.042 715.977 437.042 727.227 446.182 738.125C450.401 744.102 457.432 749.375 466.221 755.352L497.159 774.687C516.495 786.992 516.846 808.086 516.846 826.367V849.219C516.846 871.016 512.979 906.523 469.034 906.523ZM624.405 636.875V649.531H579.757V904.062H565.694V649.531H521.046V636.875H624.405ZM640.058 904.062V636.875H715.292V649.531H654.12V756.055H709.667V768.711H654.12V891.406H719.16V904.062H640.058ZM734.472 904.062V636.875H748.534L795.995 861.875H796.698L844.159 636.875H858.222V904.062H845.214V687.5H844.511L800.917 904.062H791.776L748.183 687.5H747.48V904.062H734.472ZM925.31 906.523C895.427 906.523 877.146 891.055 877.146 849.219V822.5H890.857V853.086C890.857 861.172 891.208 893.164 925.661 893.164C958.708 893.164 959.06 862.93 959.06 853.086V825.664C959.06 813.359 958.357 792.617 939.021 781.016L909.489 762.383C901.052 757.109 895.075 752.187 890.857 746.211C879.958 732.852 879.607 718.086 879.607 698.75V687.148C879.607 645.312 899.646 634.062 924.255 634.062C948.513 634.062 971.364 644.609 971.364 689.961V717.031H957.302V688.906C957.302 680.469 957.302 647.07 924.255 647.07C893.318 647.07 893.318 676.25 893.318 689.258V705.43C893.318 715.977 893.318 727.227 902.458 738.125C906.677 744.102 913.708 749.375 922.497 755.352L953.435 774.687C972.771 786.992 973.122 808.086 973.122 826.367V849.219C973.122 871.016 969.255 906.523 925.31 906.523Z" fill="#05122E"/>
</svg>
