<svg xmlns="http://www.w3.org/2000/svg" version="1.1" xmlns:xlink="http://www.w3.org/1999/xlink" xmlns:svgjs="http://svgjs.dev/svgjs" viewBox="0 0 800 800"><defs><linearGradient x1="50%" y1="0%" x2="50%" y2="100%" id="ssscribble-grad"><stop stop-color="hsl(206, 75%, 49%)" stop-opacity="1" offset="0%"></stop><stop stop-color="hsl(331, 90%, 56%)" stop-opacity="1" offset="100%"></stop></linearGradient></defs><g fill="none" stroke-width="1.5" stroke="hsl(265, 55%, 20%)" stroke-linecap="round"><path d="M1100.59 620.88C1033.65 653.74 901.21 682.76 758.76 706.22 656.32 727.56 625.86 739.54 666.42 739.1 761.32 733.06 867.9 712.11 950.45 677.01 993.9 641.12 982.08 599.73 924.65 562.39 832.88 545.21 726.76 550.63 624.15 587.61 526.41 657.6 447.34 755.71 386.84 869.05 337.8 976.28 300.62 1058.12 269.18 1093.28 241.38 1074.63 212.42 1001.83 179.56 890.96 146.7 776.11 111.5 686.07 77.32 640.79 46.79 648.98 24.18 701.18 16.28 778.76 19.83 868.36 44.79 942.73 91.89 987.73 143.85 1001.96 202.78 979.52 251.49 928.4 265.85 855.08 238.71 770.48 161.05 685.19 44.28 598.49 -91.77 520.9 -210.75 454.75 -275.4 393.37 -263.64 341.97 -173.88 298.7 -44.12 257.41 81.65 220.76 148.59 187.89 121.95 155.03 19.42 127.52 -111.86 106.83 -226.21 88.14 -275.04 79.75 -246.04 84.18 -151.56 93.38 -21.36 116.85 106.95 152.9 238.38 206.26 230.24 255.03 157.84 198.34 106.03 119.13 71.28 15.29 56.38 -98.39 50.62 -200.06 61.52 -270.97 83.79 -291.85 109.61 -259.27 140.42 -175.9 173.28 -61.06 206.14 49.81 239.49 129.29 275.65 160.63 315.35 138.16 364.23 75.03 426.94 -8.09 498.79 -97.35 587.65 -166 690.1 -201.78 789.77 -204.55 883.71 -171.02 953.26 -110.77 983.24 -30.37 964.94 58.19 896.36 144.73 802.26 230.47 701.53 305.54 631.14 368.53 626.22 425.92 693.75 473.72 820.79 514.36 964.76 552.87 1073.95 588.02 1100.59 620.88Q1100.59 620.88 1100.59 620.88" opacity="0.42"></path><path d="M1066.59 562.62C1007.14 593.13 888.19 614.96 753.77 627.55 644.88 638.94 592.24 639.16 602.38 627.61 668.49 614.31 761.01 590.27 849.85 558.81 920.6 532.94 950.28 509.37 938.07 496.66 890.27 505.52 816.11 537.42 730.87 596.41 637.25 678.82 550.38 779.07 475.94 883.97 406.27 975.55 349.65 1039.1 304.13 1059.07 261.17 1032.7 225.03 960.7 194.52 856.96 164 749.77 140.57 662.33 125.98 611.62 113.95 606.29 115.07 641.13 131.85 703.08 153.42 783.12 190.04 858.46 236.63 915.32 274.83 951.69 305.19 957.46 313 935.76 285.21 891.75 219.35 830.88 116.83 762.18 -3.77 686.21 -123.65 612.59 -212.13 545.93 -244.65 480.08 -209.37 423.08 -112.25 375.47 10.38 328.85 123.14 290.13 182.59 259.62 160.95 229.1 72.01 208.23 -47.73 197.31 -162.75 187.37 -229.64 188.86 -231.59 201.82 -172.27 215.61 -67.88 238.97 52.57 267.92 168.88 289.59 257.55 306.66 310.85 310.68 328.9 292.4 318.81 250.45 293.78 182.32 254.64 93.69 219.27 -9 195.07 -111.41 168.71 -221.84 190.39 -174.86 230.95 -27.06 261.46 76.69 300.94 154.88 349.81 193.04 400.61 184.85 463.72 138.67 539.16 69.46 616.24 -13.05 701.86 -85.94 788.03 -136.59 860.09 -163.81 913.98 -159.53 935.93 -128.41 922.62 -75.71 870.12 -8.34 785.59 64.55 696.9 143.03 619.87 217.33 582.92 283.51 607.25 347.94 691.5 403.23 818.29 449.39 949.83 494.35 1044.95 532.1 1066.59 562.62Q1066.59 562.62 1066.59 562.62" opacity="0.98"></path><path d="M1032.59 458.13C980.27 486.3 874.74 503.8 750.26 511.07 604.66 516.5 622.07 483.75 737.37 458.01 818.27 449.63 875.12 448.8 900.35 462 897.03 494.5 864.14 547.27 811.66 620.57 743.5 707.7 670.74 803.41 601.54 895.49 530.53 969.85 468.73 1015.69 418.17 1022.19 368.36 989.72 329.05 919.42 300.88 822.96 272.72 723.56 257.03 639.53 253.71 585.06 251.16 568.18 261.71 586.67 283.92 632 304.3 698.66 330.68 768.57 355.42 829.48 364.49 879.67 356.95 907.02 323.35 911 261.21 896.03 170.96 862.34 60.73 816.51 -49.31 760.52 -143.72 701.05 -199.24 643.42 -202.6 583.52 -149.13 529.38 -49.15 483.26 64.45 437.14 164.27 399.41 216.59 371.24 199.5 343.07 123.64 325.8 16.64 318.8 -134.28 313.24 -140.52 341.14 -4.52 360.27 107.6 362.69 210.23 355.95 290.94 334.01 347.47 293.11 376.95 232.38 386.09 152.86 376.93 62.63 360.86 -32.54 346.25 -119.84 327.17 -185.82 317.13 -220.35 319.07 -214.35 321 -170.76 335.65 -92.45 363.82 6.93 391.99 103.4 432.33 179.43 483.52 222.77 534.7 227.15 595.99 197.35 663.87 143.64 727.3 72.21 789.75 1.75 842.32 -56.05 876.6 -100.02 887.56 -119.4 867.94 -114.99 824.15 -91.27 754.91 -50 672.11 1.78 601.59 62.75 554.54 125.5 550.33 185.03 598.82 246.07 693.68 300.55 816.06 346.61 933.93 392.47 1015.5 429.96 1032.59 458.13Q1032.59 458.13 1032.59 458.13" opacity="0.46"></path><path d="M998.59 337.11C953.01 362.93 860.7 379.14 747.68 386.7 639.02 394.81 558.4 395.58 518.41 391.3 522.96 390.49 563.54 388.87 625 390.7 699.75 402.44 766.46 424.2 814.58 459.91 845.67 510.29 851.31 576.21 835.62 655.37 803.66 739.95 759.59 825.56 710.91 901.78 656.33 958.38 604.49 987.71 559.59 982.68 513.86 945.74 477.16 877.97 451.34 788.96 425.52 697.47 411.81 617.64 408.84 561.04 405.05 534.73 409.92 538.5 419.76 567.23 423.69 618.09 425.24 677.51 417.4 735.39 393.3 790.77 350.59 831.32 285.66 854.24 203.7 863.56 106.39 855.45 4.74 833.74 -83.58 801.84 -147.33 762.47 -170.8 720.41 -149.74 674.4 -83.81 630.19 14.88 590.76 117.93 550.61 205.01 516.85 250.59 491.03 237.59 465.21 174.17 448.55 80.72 440.01 -23.66 430.74 -108.38 427.98 -155.76 429.24 -161.57 426.57 -123.13 423.41 -52.18 415.52 40.97 397.44 139.58 368.49 230.35 325.34 310.36 268.57 370.7 197.41 412.08 115.15 437.57 30.39 450.57 -52.17 457.49 -121.97 457.16 -169.63 458.52 -188.1 465.89 -171.76 471.86 -125.14 486.92 -50.55 512.74 40.92 538.56 129.94 573.92 202.96 616.64 249.87 657.96 264.88 703.57 250.24 748.65 212.57 786.48 155.28 816 92.82 830.3 35.13 828.71 -17.14 805.44 -52.45 759.27 -68.99 702.34 -70.87 634.34 -55.56 568.07 -27.5 524 10.45 508.72 54.59 533.45 100.14 599.76 149.17 699.17 195.37 813.53 235.95 916.93 277.08 985.59 311.29 998.59 337.11Q998.59 337.11 998.59 337.11" opacity="0.07"></path><path d="M964.58 233.97C925.34 257.44 845.85 274.63 745.43 286.55 642.62 299.4 556.64 308.88 499.94 317.32 478.05 329.75 489.21 345.06 524.8 366.41 580.74 396.15 640.88 435.91 694.79 487.26 743.59 547.69 775.36 618.2 789.46 695.13 791.71 770.99 779.46 842.43 757.47 901.15 728.83 940.47 696.59 955.07 664.98 940.62 631.76 900.82 602.4 836.39 578.93 754.97 555.46 671.49 538.98 596.6 527.94 539.46 515.29 505.99 504.82 497.13 492.78 510.26 474.1 544.37 447.69 589.87 409.27 639.02 358.99 691.68 293.52 736.69 213.96 770.18 129.28 795.97 41.31 807.69 -39.05 806.73 -99.09 797.65 -131.29 779.3 -126.61 755.06 -87.11 726.69 -14.5 696.33 79.24 666.76 170.61 636.18 245.34 608.43 284.58 584.95 275.23 561.48 223.47 543.4 143.96 529.72 49.6 515.02 -35.32 502.68 -95.26 490.38 -125.49 473.93 -118.51 453.63 -79.56 426.54 -15.02 391.32 64.72 345.9 148.22 289.35 232.79 225.09 307.71 152.25 369.59 75.15 421.97 1.56 461.65 -64.97 491.62 -116.29 514.98 -146.62 534.05 -151.13 552.36 -126.71 568.85 -78.64 588.1 -8.5 611.57 74.97 635.04 156.39 661.62 225.58 689.4 274.43 715.36 297.94 738.99 296.7 756.31 274.59 767.02 233.07 765.99 182.67 749.79 131.26 724.1 78.77 682.87 36.09 629.07 6.42 576.34 -14.15 524.41 -20.21 484.31 -13.78 469.79 1.04 483.85 24.38 531.28 52.62 608.41 84.87 706.7 118.09 810.12 149.5 898.69 181.85 955.21 210.49 964.59 233.96Q964.58 233.97 964.58 233.97" opacity="0.72"></path><path d="M930.65 177.91C897.56 199.03 830.52 218.17 743.45 235.98 649.53 254.73 563.56 273.95 496.62 295.3 454.23 320.03 438.83 349.72 446.83 386.06 476.57 428.02 517.82 478.27 562.17 536.53 610.65 598.62 651.46 665.64 681.15 733.58 705.53 796.22 717.41 851.13 718.28 892.15 714.38 915.55 702.85 917.62 686.32 895.99 668.3 854.9 648.08 794.56 626.95 720.86 605.83 645.49 584.81 576.19 562.99 520.05 539.67 481.72 512.78 462.73 480.06 462.11 442.58 479.91 395.92 509.84 338.98 546.41 276.73 590.1 205.59 631.73 129.43 667.33 57.39 700.47 -8.9 723.8 -60.64 736.94 -90.64 745.04 -94.18 744.02 -67.28 735.66 -15.82 724.02 58.12 707.66 143.88 688.51 222.8 668.41 285.56 647.31 318.65 626.18 312.24 605.06 271.04 584.91 205.28 565.17 123.06 544.48 42.89 522.41 -22.48 497.44 -69.24 469.2 -87.69 435.43 -78.63 394.78 -45.95 349.08 6.05 295.42 69.11 234.6 140.9 171.31 212.31 104.63 278.13 38.94 341.57 -19.62 395.95 -68.5 440.98 -101.78 482.19 -116.65 516.19 -109.69 544.53 -79.52 571.49 -31.54 595.25 33.46 616.37 108.82 637.5 182.53 654.99 247.16 667.86 296.41 681.58 331.18 660.98 284.73 620.3 226.11 587.05 180.16 545.96 138.19 501.86 103.78 453.01 63.25 460.48 42.65 541.42 57.08 622.29 72.34 714.48 91.55 804.85 112.64 878.76 134.67 924.24 156.78 930.65 177.91Q930.65 177.91 930.65 177.91" opacity="0.32"></path><path d="M896.57 185.17C868.8 203.95 813.27 224.6 739.68 247.24 657 270.57 575.98 297.16 505.64 327.71 450.52 360.37 415 398.5 398.77 442.36 401.41 488.87 417.91 541.05 442.69 597.5 476.48 653.75 510.16 710.82 539.49 765.03 569.29 811.92 591.05 849.7 603.81 874.13 614.71 883.73 617.12 875.79 611.7 849.25 605.46 808.36 592.8 752.8 574.02 686.93 555.24 619.76 531.24 556.67 502.06 502.96 472.07 462.08 435.5 435.7 392.05 423.84 346.76 427.02 294.07 441.51 235.33 463.73 177.06 494.45 116.42 526.82 58.02 557.38 8.63 589.27 -30.13 615.52 -52.31 634.72 -55.63 651.93 -36.95 661.58 4.39 664.01 60.97 664.55 131.3 659.09 206.73 648.51 273.08 637.29 324.8 622.1 352.57 603.32 349.03 584.54 317.72 563.07 265.48 538.88 196.87 514.04 125.39 485.34 60.81 452.26 5.51 417.29 -30.56 376.71 -45.72 330.56 -42.56 282.42 -20.61 229.22 15.22 172.71 62.66 117.54 116.16 62.9 170.62 12.63 228.03 -29.13 281.58 -60.46 328.96 -77.4 375.67 -79.31 415.57 -63.62 448.19 -29.98 480.27 16.48 505.91 75.76 524.69 142.93 543.47 208.8 554.5 268.17 557.84 316.3 557.77 359.4 514.58 351.74 474.8 313.93 449.27 279.27 422.73 244.46 399.9 212.82 388.66 180.98 388.97 155.76 405.36 138.2 440.06 123.28 492.98 116.08 562.03 115.95 640.38 117.95 722.54 125.52 798.4 137.6 857.89 150.37 893.02 166.39 896.58 185.16Q896.57 185.17 896.57 185.17" opacity="0.37"></path><path d="M862.58 253.39C795.64 286.25 663.36 336.67 525.09 403.15 416.55 472.89 363.23 560.94 356.65 657.6 408.48 779.33 477.15 797.9 443.62 652.92 410.76 538.08 349.49 446.33 266.57 395.41 186 389.45 95.21 415.14 20.06 452.31 -16.41 502.9 2.04 539.76 86.5 553.93 200.68 565.87 319.64 555.41 386.58 522.54 359.94 489.68 263.96 437.53 149.88 368.65 45.52 297.53 -2.89 209.39 5.39 115.73 55.02 35.49 130.36 -25.05 204.08 -43.17 283.76 -16.34 344.87 62.08 377.73 176.92 410.59 287.8 412.09 369.32 389.36 407.55 372.59 400.23 348.53 364.26 341.98 321.01 376.76 267.43 460.03 230.66 588.47 217.87 726.64 208.33 835.94 220.53 862.58 253.39Q862.58 253.39 862.58 253.39" opacity="0.65"></path><path d="M828.58 363.26C776.24 391.43 670.73 438.68 551.06 500.24 440.01 561.24 361.33 633.2 318.63 704.84 308.74 782.56 324.39 748.44 293.89 618.97 265.72 519.57 216.72 434.34 156.64 376.85 79.14 350.45 60.32 405.47 175.12 428.98 274.15 441.35 368.24 435.08 420.58 406.91 403.51 378.75 333 331.35 241.15 270.17 142.5 210.34 74.6 141.4 46.89 75.43 47.33 24.83 77.12 -4.63 118.38 0.91 168.23 37.74 212.43 111.54 240.6 210.93 268.77 307.4 278.24 384.87 277.2 432.27 284.75 447.03 298.91 437.37 335.38 416.34 400 381.62 497.76 353.62 617.06 341.43 729.56 328.68 811.5 335.09 828.59 363.25Q828.58 363.26 828.58 363.26" opacity="0.87"></path><path d="M794.58 483.59C755.35 507.06 675.69 545.11 579.62 592.31 479.79 637.17 394.32 685.88 331.76 728.99 286.9 759.72 259.64 773.07 241.3 760.59 229.6 727.04 214.78 666.39 191.31 584.97 167.83 501.49 137.93 425.79 108.96 367.57 86.62 328.87 77.25 308.67 91.35 301.5 123.14 307.31 183.71 314.8 266.34 316.27 345.21 320.53 415.35 312.81 454.58 289.34 445.23 265.86 397.61 228.87 330.36 183.93 248.91 141.78 180.26 97.66 135.75 61.09 104.77 37.49 98.5 32.8 109.53 54.28 127.19 95.29 150.95 161.47 174.42 244.93 197.89 326.36 218.85 396.54 241.87 447.3 271.51 476.99 314.41 488.53 376.15 488.58 451.42 476.23 544.97 464.15 643.62 459.97 728.08 453.44 785.21 460.11 794.59 483.58Q794.58 483.59 794.58 483.59" opacity="0.64"></path><path d="M760.61 580.11C732.93 598.89 677.11 624.79 606.77 653.78 527.87 680.37 451.99 705.48 387.82 723.06 330.18 732 285.51 726.9 252.68 703.96 223.63 669.16 200.4 616.78 181.62 550.92 162.84 483.74 150.3 420.13 146.8 366.53 147.09 323.47 162.45 291.94 195.48 270.49 235.04 257.63 291.01 248.83 356.14 239.82 412.72 233.36 460.93 221.94 488.61 203.17 484.99 184.39 456.64 160.03 413.33 133.95 355.48 110.41 300.28 89.9 257.06 78.16 216.65 74.99 192.9 86.61 185.73 115.91 181.62 155.74 189.69 211.74 208.47 278.92 227.25 344.78 254.96 404.77 291.61 453.33 331.32 490.04 384.38 515.06 449.39 530.73 517.23 537.76 592.34 541.96 663.96 547.9 721.03 551.45 756.99 561.33 760.61 580.11Q760.61 580.11 760.61 580.11" opacity="0.24"></path><path d="M726.58 625.51C674.24 653.68 568.73 680.15 468.1 684.57 368.01 670.88 297.15 613.42 268.98 516.97 240.81 417.56 260.68 329.99 323.85 272.04 387.56 231.14 470.24 201.2 522.58 173.03 505.51 144.86 445.59 123.8 389.35 127.79 324.82 148.82 299.73 213.56 327.9 312.97 356.07 409.42 432.15 489.71 533.6 540.32 626.76 572.82 709.51 597.34 726.58 625.51Q726.58 625.51 726.58 625.51" opacity="0.36"></path><path d="M692.59 606.75C609.63 644.31 452.28 607.53 414.73 482.96 377.17 353.2 473.63 244.91 556.59 207.35 518.68 169.8 441.68 217.2 479.24 346.96 516.79 471.53 654.68 569.2 692.59 606.75Q692.59 606.75 692.59 606.75" opacity="0.78"></path></g></svg>