<svg version="1.1" id="Layer_1" xmlns="http://www.w3.org/2000/svg" xmlns:xlink="http://www.w3.org/1999/xlink" x="0px" y="0px" viewBox="-314.3 -35.7 1146.9 183.3" style="enable-background:new -314.3 -35.7 1146.9 183.3;" xml:space="preserve">
 <style type="text/css">
  .st0{fill:currentColor;}
 </style>
 <g>
  <path class="st0" d="M-271.1-35.4l-36.5,20.8c-1.2,0.4-1.2,2.1,0,2.5l85.5,49c0.8,0.4,2.1,0.4,2.9,0l36.5-20.8
		c1.2-0.4,1.2-2.1,0-2.5l-85.1-49C-269-35.8-269.9-35.8-271.1-35.4z">
  </path>
  <path class="st0" d="M-173.6-35.4l-36.5,20.8c-1.2,0.4-1.2,2.1,0,2.5l36.9,21.6c0.8,0.4,2.1,0.4,2.9,0l36.5-20.8
		c1.2-0.4,1.2-2.1,0-2.5L-170.7-35C-171.5-35.8-172.7-35.8-173.6-35.4z">
  </path>
  <path class="st0" d="M-216.3,48v41.9c0,1.2,1.2,2.1,2.5,1.2l36.9-21.2c0.4-0.4,0.8-0.8,0.8-1.2V25.6c0-1.2-1.2-2.1-2.5-1.2
		l-36.1,20.8C-215.9,45.9-216.3,46.8-216.3,48z">
  </path>
  <path class="st0" d="M-166.5,17.3L-130-3.5c0.8-0.4,2.5,0,2.5,1.2v98c0,1.2-0.4,2.1-1.7,2.5l-85.1,49c-0.8,0.4-2.5,0-2.5-1.2V104
		c0-1.2,0.4-2.1,1.7-2.5l45.7-26.2c0.8-0.4,1.7-1.7,1.7-2.9V20.2C-167.8,18.9-167.3,18.1-166.5,17.3z">
  </path>
  <path class="st0" d="M-224.6,47.6v43.2c0,0.8-0.8,1.2-1.7,0.8l-44.8-25.7c-0.8-0.4-2.5,0-2.5,1.2v50.6c0,1.2-1.2,2.1-2.5,1.2
		l-36.5-20.8c-0.8-0.4-1.7-1.7-1.7-2.5V-2.6c0-1.2,1.2-2.1,2.5-1.2l85.5,49C-225.5,45.5-224.6,46.8-224.6,47.6z">
  </path>
  <path class="st0" d="M-263.2,80l36.5,21.2c0.8,0.4,1.7,1.7,1.7,2.5V146c0,1.2-1.2,2.1-2.5,1.2l-36.5-21.2c-0.8-0.4-1.7-1.7-1.7-2.5
		V81.6C-265.3,80.4-264.1,79.6-263.2,80z">
  </path>
  <path class="st0" d="M14,28.1C14,45.9,2,56.3-12.5,58c-5,0.4-8.3,0.8-14.1,0.8h-14.5v36.9h-19.5V-2.6h34c5.8,0,9.5,0,14.1,0.8
		C2.4-0.1,14,9.8,14,28.1z M-6.7,28.1c0-9.1-5-13.7-11.6-14.5c-2.1-0.4-5-0.4-8.7-0.4h-14.1V43H-27c3.7,0,6.6,0,8.7-0.4
		C-11.3,41.4-6.7,37.2-6.7,28.1z">
  </path>
  <path class="st0" d="M67.6,18.5v15.8c-16.2-1.2-24.5,6.2-24.5,26.6v34.5H23.6V19.8h19.5v13.7l5.8-10.4c3.7-3.3,8.7-5,12.9-5
		C64.3,18.1,65.9,18.1,67.6,18.5z">
  </path>
  <path class="st0" d="M149.4,57.6c0,22.8-14.1,39.8-39,39.8s-39-17-39-39.8s14.1-39.8,39-39.8S149.4,34.7,149.4,57.6z M129,57.6
		c0-16.2-7.1-26.2-18.7-26.2s-18.7,9.5-18.7,26.2c0,16.2,7.1,26.2,18.7,26.2C122,83.3,129,73.7,129,57.6z">
  </path>
  <path class="st0" d="M184.6,68.3V75c0.4,7.5,3.3,9.1,14.1,8.3v12.9C194.2,97,190,97,185.9,97c-14.5,0-19.9-5-20.8-15.4
		c-0.4-3.3-0.4-6.6-0.4-10.8V33.5h-11.2V20.6h11.2V-4.3h19.5v24.9H200v12.9h-15.8v34.9L184.6,68.3z">
  </path>
  <path class="st0" d="M283.4,57.6c0,22.8-14.1,39.8-39,39.8c-24.9,0-39-17-39-39.8s14.1-39.8,39-39.8
		C269.3,17.7,283.4,34.7,283.4,57.6z M263.5,57.6c0-16.2-7.1-26.2-18.7-26.2c-11.6,0-18.7,9.5-18.7,26.2c0,16.2,7.1,26.2,18.7,26.2
		C256,83.3,263.5,73.7,263.5,57.6z">
  </path>
  <path class="st0" d="M362.7,47.2h-19.1c-1.7-10.8-7.5-15.4-15.8-15.4c-10,0-17,7.9-17,25.3c0,18.7,7.1,26.6,17,26.6
		c7.5,0,13.3-5,15.4-14.5h19.5c-3.3,18.7-17,28.2-36.1,28.2c-20.8,0-36.1-12.9-36.1-39c0-25.7,17-40.3,37.8-40.3
		C348.6,17.7,361.5,30.2,362.7,47.2z">
  </path>
  <path class="st0" d="M447.8,57.6c0,22.8-14.1,39.8-39,39.8s-39-17-39-39.8s14.1-39.8,39-39.8S447.8,34.7,447.8,57.6z M427.5,57.6
		c0-16.2-7.1-26.2-18.7-26.2s-18.7,9.5-18.7,26.2c0,16.2,7.1,26.2,18.7,26.2C420.4,83.3,427.5,73.7,427.5,57.6z">
  </path>
  <path class="st0" d="M456.5,95.3v-100H476v100H456.5z">
  </path>
  <path class="st0" d="M597.2,95.3h-70.6v-100h19.5v83.8h51.1V95.3z">
  </path>
  <path class="st0" d="M649.9,84.1l-3.7,7.9c-5.4,3.7-11.6,5-18.7,5c-12.9,0-24.1-7.5-24.1-22c0-16.6,14.1-26.2,41.5-26.2h5v-1.7
		c0-2.1,0-4.6-0.4-7.1c-0.4-5.4-4.2-9.1-11.6-9.1c-7.9,0-12,4.6-12.5,12.9h-19.1c0.4-17,14.5-26.6,32.4-26.6
		c21.2,0,29.1,9.1,30.3,22.4c0.4,3.7,0.4,7.5,0.4,11.6v24.5c0,5.8,0.4,10.8,1.2,19.1h-19.1L649.9,84.1z M649.9,67.5v-6.2
		c-15.8-1.2-26.2,2.5-26.2,12.5c0,6.6,4.6,10,11.6,10C643.3,83.3,649.9,77.9,649.9,67.5z">
  </path>
  <path class="st0" d="M762.4,56.3c0,27.4-16.6,41.1-36.1,41.1c-6.2,0-13.7-1.7-17.8-4.2l-5-7.9v10H684v-100h19.5v36.1l5.8-8.3
		c4.2-3.3,12-5.4,19.5-5.4C750,17.7,762.4,33.9,762.4,56.3z M742.1,57.6c0-15.4-7.5-25.7-19.1-25.7c-10.8,0-19.5,6.6-19.5,24.9v3.7
		c0,17,10,23.2,18.7,23.2C733.8,83.3,742.1,75,742.1,57.6L742.1,57.6z">
  </path>
  <path class="st0" d="M831.3,41.8h-19.5c-1.2-7.1-5-10.8-11.6-10.8c-5.8,0-9.1,3.3-9.1,7.9c0,5.8,4.6,8.7,17,11.6
		c15.4,4.2,24.5,10.4,24.5,24.1c0,15.4-13.7,22.4-31.1,22.4c-18.3,0-31.1-7.9-33.2-24.9h19.5c1.7,8.3,7.1,12,14.1,12
		c6.2,0,11.2-2.5,11.2-8.3s-5-9.1-17.8-12.5c-14.1-3.7-23.7-9.5-23.7-22.8c0-14.5,12-23.2,29.9-23.2
		C819.3,17.7,829.7,28.1,831.3,41.8L831.3,41.8z">
  </path>
 </g>
</svg>
