<svg width="929" height="179" viewBox="0 0 929 179" fill="none" xmlns="http://www.w3.org/2000/svg">
<path d="M0.46 177L24.38 2.19999H49.22L73.37 177H50.14L46.69 145.49H26.91L23.46 177H0.46ZM28.29 124.33H45.31L37.26 35.55H36.57L28.29 124.33ZM105.45 178.61C86.1296 178.61 74.1696 170.56 74.1696 141.12V116.28H96.9396V143.65C96.9396 149.17 97.1696 156.3 105.68 156.3C113.73 156.3 114.19 149.63 114.19 143.65V122.03C114.19 114.67 111.89 106.16 104.76 100.64L92.5696 91.21C87.9696 87.07 84.0596 83.39 81.0696 78.56C76.2396 71.2 74.6296 62.23 74.6296 47.97V36.47C74.6296 7.48999 86.5896 0.359998 105.22 0.359998C123.85 0.359998 136.73 7.25999 136.73 36.93V62H113.96V36.24C113.96 31.41 113.96 22.21 105.45 22.21C97.3996 22.21 97.3996 30.49 97.3996 36.24V55.56C97.3996 59.7 97.8596 63.61 100.85 67.75C103.84 72.12 108.67 76.26 113.96 80.86L127.3 91.9C136.04 99.03 136.96 108 136.96 124.79V141.12C136.96 166.65 127.99 178.61 105.45 178.61ZM143.628 177V2.19999H166.628V177H143.628ZM175.522 177V2.19999H198.522L215.542 105.7H216.232L233.252 2.19999H256.482V177H235.322V73.04H234.862L221.982 177H210.022L197.142 73.04H196.682V177H175.522ZM295.271 178.61C275.951 178.61 263.991 170.79 263.991 141.12V37.16C263.991 7.48999 275.951 0.359998 295.271 0.359998C314.361 0.359998 326.781 7.25999 326.781 37.16V141.12C326.781 171.02 314.361 178.61 295.271 178.61ZM286.761 143.42C286.761 152.16 289.291 156.3 295.501 156.3C301.481 156.3 304.241 152.16 304.241 143.42V36.01C304.241 22.67 301.481 18.99 295.501 18.99C289.291 18.99 286.761 22.67 286.761 36.01V143.42ZM352.77 177L328.39 2.19999H351.39C355.76 44.52 360.13 87.07 364.5 143.65H365.19C369.33 87.07 373.93 44.52 378.07 2.19999H401.3L376.46 177H352.77ZM455.894 178.61C436.344 178.61 424.384 168.49 424.384 141.12V123.64H433.354V143.65C433.354 148.94 433.584 169.87 456.124 169.87C477.744 169.87 477.974 150.09 477.974 143.65V125.71C477.974 117.66 477.514 104.09 464.864 96.5L445.544 84.31C440.024 80.86 436.114 77.64 433.354 73.73C426.224 64.99 425.994 55.33 425.994 42.68V35.09C425.994 7.71999 439.104 0.359998 455.204 0.359998C471.074 0.359998 486.024 7.25999 486.024 36.93V54.64H476.824V36.24C476.824 30.72 476.824 8.87 455.204 8.87C434.964 8.87 434.964 27.96 434.964 36.47V47.05C434.964 53.95 434.964 61.31 440.944 68.44C443.704 72.35 448.304 75.8 454.054 79.71L474.294 92.36C486.944 100.41 487.174 114.21 487.174 126.17V141.12C487.174 155.38 484.644 178.61 455.894 178.61ZM522.544 177V119.04L490.574 2.19999H500.234L526.914 103.4H527.374L553.594 2.19999H563.484L531.744 119.04V177H522.544ZM598.296 178.61C578.746 178.61 566.786 168.49 566.786 141.12V123.64H575.756V143.65C575.756 148.94 575.986 169.87 598.526 169.87C620.146 169.87 620.376 150.09 620.376 143.65V125.71C620.376 117.66 619.916 104.09 607.266 96.5L587.946 84.31C582.426 80.86 578.516 77.64 575.756 73.73C568.626 64.99 568.396 55.33 568.396 42.68V35.09C568.396 7.71999 581.506 0.359998 597.606 0.359998C613.476 0.359998 628.426 7.25999 628.426 36.93V54.64H619.226V36.24C619.226 30.72 619.226 8.87 597.606 8.87C577.366 8.87 577.366 27.96 577.366 36.47V47.05C577.366 53.95 577.366 61.31 583.346 68.44C586.106 72.35 590.706 75.8 596.456 79.71L616.696 92.36C629.346 100.41 629.576 114.21 629.576 126.17V141.12C629.576 155.38 627.046 178.61 598.296 178.61ZM699.944 2.19999V10.48H670.734V177H661.534V10.48H632.324V2.19999H699.944ZM710.184 177V2.19999H759.404V10.48H719.384V80.17H755.724V88.45H719.384V168.72H761.934V177H710.184ZM771.952 177V2.19999H781.152L812.202 149.4H812.662L843.712 2.19999H852.912V177H844.402V35.32H843.942L815.422 177H809.442L780.922 35.32H780.462V177H771.952ZM896.802 178.61C877.252 178.61 865.292 168.49 865.292 141.12V123.64H874.262V143.65C874.262 148.94 874.492 169.87 897.032 169.87C918.652 169.87 918.882 150.09 918.882 143.65V125.71C918.882 117.66 918.422 104.09 905.772 96.5L886.452 84.31C880.932 80.86 877.022 77.64 874.262 73.73C867.132 64.99 866.902 55.33 866.902 42.68V35.09C866.902 7.71999 880.012 0.359998 896.112 0.359998C911.982 0.359998 926.932 7.25999 926.932 36.93V54.64H917.732V36.24C917.732 30.72 917.732 8.87 896.112 8.87C875.872 8.87 875.872 27.96 875.872 36.47V47.05C875.872 53.95 875.872 61.31 881.852 68.44C884.612 72.35 889.212 75.8 894.962 79.71L915.202 92.36C927.852 100.41 928.082 114.21 928.082 126.17V141.12C928.082 155.38 925.552 178.61 896.802 178.61Z" fill="white"/>
</svg>
